<?xml version="1.0" encoding="UTF-8" standalone="no"?>
<svg width="173px" height="164px" viewBox="0 0 173 164" version="1.1" xmlns="http://www.w3.org/2000/svg" xmlns:xlink="http://www.w3.org/1999/xlink">
    <!-- Generator: Sketch 43.1 (39012) - http://www.bohemiancoding.com/sketch -->
    <title>Page 1</title>
    <desc>Created with Sketch.</desc>
    <defs></defs>
    <g id="Page-1" stroke="none" stroke-width="1" fill="none" fill-rule="evenodd">
        <g id="Artboard-2" transform="translate(-251.000000, -1157.000000)">
            <g id="Page-1" transform="translate(253.000000, 1158.000000)">
                <path d="M76.7042827,17.4574755 C79.7396424,17.0166365 82.8438775,16.7884189 86.0013919,16.7884189 C121.421122,16.7884189 150.135041,45.5023378 150.135041,80.9197703 C150.135041,110.95326 129.490102,136.165359 101.617502,143.138788 M91.2062729,144.845259 C89.4895009,144.983144 87.7536523,145.053419 86.0013919,145.053419 C50.5839595,145.053419 21.8700405,116.3395 21.8700405,80.9197703 C21.8700405,52.5172956 40.3359492,28.4258476 65.9164728,19.9967199" id="Stroke-1" stroke="#EAE8FD" stroke-width="3"></path>
                <path d="M47.7116486,54.6862432 C47.7116486,67.1421892 37.6127297,77.2411081 25.1567838,77.2411081 C12.7008378,77.2411081 2.60421622,67.1421892 2.60421622,54.6862432 C2.60421622,42.2325946 12.7008378,32.1336757 25.1567838,32.1336757 C37.6127297,32.1336757 47.7116486,42.2325946 47.7116486,54.6862432 Z" id="Fill-3" fill="#15123F"></path>
                <path d="M25.1567838,32.1336757 C37.6127297,32.1336757 47.7116486,42.2325946 47.7116486,54.6862432 C47.7116486,67.1421892 37.6127297,77.2411081 25.1567838,77.2411081 C12.7008378,77.2411081 2.60421622,67.1421892 2.60421622,54.6862432 C2.60421622,42.2325946 12.7008378,32.1336757 25.1567838,32.1336757 Z" id="Stroke-5" stroke="#FFFFFF" stroke-width="3"></path>
                <path d="M50.2026081,121.840378 C49.5662568,97.2455135 38.5920676,77.6656486 25.1482838,77.6656486 C11.6999054,77.6656486 0.728013514,97.2455135 0.0916621622,121.840378 L50.2026081,121.840378 Z" id="Fill-7" fill="#15123F"></path>
                <path d="M50.2026081,121.840378 C49.5662568,97.2455135 38.5920676,77.6656486 25.1482838,77.6656486 C11.6999054,77.6656486 0.728013514,97.2455135 0.0916621622,121.840378 L50.2026081,121.840378 Z" id="Stroke-9" stroke="#FFFFFF" stroke-width="3"></path>
                <path d="M166.383595,54.6862432 C166.383595,67.1421892 156.284676,77.2411081 143.82873,77.2411081 C131.372784,77.2411081 121.276162,67.1421892 121.276162,54.6862432 C121.276162,42.2325946 131.372784,32.1336757 143.82873,32.1336757 C156.284676,32.1336757 166.383595,42.2325946 166.383595,54.6862432 Z" id="Fill-11" fill="#15123F"></path>
                <path d="M143.82873,32.1336757 C156.284676,32.1336757 166.383595,42.2325946 166.383595,54.6862432 C166.383595,67.1421892 156.284676,77.2411081 143.82873,77.2411081 C131.372784,77.2411081 121.276162,67.1421892 121.276162,54.6862432 C121.276162,42.2325946 131.372784,32.1336757 143.82873,32.1336757 Z" id="Stroke-13" stroke="#FFFFFF" stroke-width="3"></path>
                <path d="M168.874554,121.840378 C168.238203,97.2455135 157.264014,77.6656486 143.82023,77.6656486 C130.371851,77.6656486 119.399959,97.2455135 118.763608,121.840378 L168.874554,121.840378 Z" id="Fill-15" fill="#15123F"></path>
                <path d="M168.874554,121.840378 C168.238203,97.2455135 157.264014,77.6656486 143.82023,77.6656486 C130.371851,77.6656486 119.399959,97.2455135 118.763608,121.840378 L168.874554,121.840378 Z" id="Stroke-17" stroke="#FFFFFF" stroke-width="3"></path>
                <polyline id="Stroke-23" stroke="#EAE8FD" stroke-width="3" points="91.6100135 33.0780946 74.9706892 16.4387703 91.2723108 0.139445946"></polyline>
                <polyline id="Stroke-25" stroke="#EAE8FD" stroke-width="3" points="74.9681622 128.786027 91.6097838 145.425351 75.3081622 161.724676"></polyline>
                <g id="Group-30" transform="translate(13.783784, 55.039568)">
                    <path d="M22.4016351,0.845405405 C22.4016351,6.73337838 17.6255541,11.5094595 11.7352838,11.5094595 C5.84731081,11.5094595 1.07352703,6.73337838 1.07352703,0.845405405" id="Fill-27" fill="#15123F"></path>
                    <path d="M22.4016351,0.845405405 C22.4016351,6.73337838 17.6255541,11.5094595 11.7352838,11.5094595 C5.84731081,11.5094595 1.07352703,6.73337838 1.07352703,0.845405405" id="Stroke-29" stroke="#2D1BF1" stroke-width="3"></path>
                </g>
                <g id="Group-34" transform="translate(132.094595, 55.039568)">
                    <path d="M22.1886757,0.845405405 C22.1886757,6.73337838 17.4125946,11.5094595 11.5223243,11.5094595 C5.63435135,11.5094595 0.860567568,6.73337838 0.860567568,0.845405405" id="Fill-31" fill="#15123F"></path>
                    <path d="M22.1886757,0.845405405 C22.1886757,6.73337838 17.4125946,11.5094595 11.5223243,11.5094595 C5.63435135,11.5094595 0.860567568,6.73337838 0.860567568,0.845405405" id="Stroke-33" stroke="#2D1BF1" stroke-width="3"></path>
                </g>
            </g>
        </g>
    </g>
</svg>