<?xml version="1.0" encoding="UTF-8" standalone="no"?>
<svg width="176px" height="126px" viewBox="0 0 176 126" version="1.1" xmlns="http://www.w3.org/2000/svg" xmlns:xlink="http://www.w3.org/1999/xlink">
    <!-- Generator: Sketch 43.1 (39012) - http://www.bohemiancoding.com/sketch -->
    <title>Page 1</title>
    <desc>Created with Sketch.</desc>
    <defs></defs>
    <g id="Page-1" stroke="none" stroke-width="1" fill="none" fill-rule="evenodd">
        <g id="Artboard-2" transform="translate(-760.000000, -448.000000)">
            <g id="Page-1" transform="translate(761.000000, 450.000000)">
                <polygon id="Stroke-1" stroke="#14123F" stroke-width="3" fill="#FFFFFF" points="0.617647059 103.858643 158.28551 103.858643 158.28551 0.358805405 0.617647059 0.358805405"></polygon>
                <polygon id="Stroke-3" stroke="#14123F" stroke-width="3" fill="#EAE8FD" points="9.62758824 84.3569811 149.273824 84.3569811 149.273824 9.35742703 9.62758824 9.35742703"></polygon>
                <g id="Group-19" transform="translate(66.000000, 28.714305)">
                    <path d="M13.452102,62.3928622 C15.1099451,62.3928622 16.4554157,63.7369027 16.4554157,65.3929838 C16.4554157,67.0508081 15.1099451,68.3931054 13.452102,68.3931054 C11.7925137,68.3931054 10.4470431,67.0508081 10.4470431,65.3929838 C10.4470431,63.7369027 11.7925137,62.3928622 13.452102,62.3928622 Z" id="Fill-4" fill="#2D1BF1"></path>
                    <path d="M13.452102,76.3933716 L13.452102,92.8931689" id="Stroke-6" stroke="#14123F" stroke-width="3" stroke-linecap="square"></path>
                    <path d="M0.687756863,93.6418919 L26.215051,93.6418919" id="Stroke-8" stroke="#14123F" stroke-width="3" stroke-linecap="square"></path>
                    <polygon id="Fill-10" fill="#FFFDFD" points="24.7135686 93.6418919 92.2855098 93.6418919 92.2855098 0.641608108 24.7135686 0.641608108"></polygon>
                    <polygon id="Stroke-12" stroke="#14123F" stroke-width="3" fill="#FFFFFF" points="24.7135686 93.6418919 92.2855098 93.6418919 92.2855098 0.641608108 24.7135686 0.641608108"></polygon>
                    <polygon id="Stroke-13" stroke="#14123F" stroke-width="3" fill="#EAE8FD" points="33.7235098 74.141973 83.2755686 74.141973 83.2755686 9.64197297 33.7235098 9.64197297"></polygon>
                    <path d="M58.4991902,80.8926824 C60.1570333,80.8926824 61.5025039,82.236723 61.5025039,83.8928041 C61.5025039,85.5488851 60.1570333,86.8911824 58.4991902,86.8911824 C56.8413471,86.8911824 55.4958765,85.5488851 55.4958765,83.8928041 C55.4958765,82.236723 56.8413471,80.8926824 58.4991902,80.8926824" id="Fill-14" fill="#2D1BF1"></path>
                    <polygon id="Fill-15" fill="#FFFFFF" points="71.2640588 93.6418919 106.801235 93.6418919 106.801235 39.2091216 71.2640588 39.2091216"></polygon>
                    <polygon id="Stroke-16" stroke="#14123F" stroke-width="3" points="71.2640588 93.6418919 106.801235 93.6418919 106.801235 39.2091216 71.2640588 39.2091216"></polygon>
                    <polygon id="Stroke-17" stroke="#14123F" stroke-width="3" fill="#EAE8FD" points="78.2706275 79.9522027 99.7929216 79.9522027 99.7929216 47.3762162 78.2706275 47.3762162"></polygon>
                    <path d="M89.0333451,85.4364459 C89.904149,85.4364459 90.6109137,86.1442027 90.6109137,87.0140811 C90.6109137,87.8857027 89.904149,88.5934595 89.0333451,88.5934595 C88.159051,88.5934595 87.4522863,87.8857027 87.4522863,87.0140811 C87.4522863,86.1442027 88.159051,85.4364459 89.0333451,85.4364459" id="Fill-18" fill="#2D1BF1"></path>
                </g>
            </g>
        </g>
    </g>
</svg>