<?xml version="1.0" encoding="UTF-8" standalone="no"?>
<svg width="167px" height="148px" viewBox="0 0 167 148" version="1.1" xmlns="http://www.w3.org/2000/svg" xmlns:xlink="http://www.w3.org/1999/xlink">
    <!-- Generator: Sketch 43.1 (39012) - http://www.bohemiancoding.com/sketch -->
    <title>Page 1</title>
    <desc>Created with Sketch.</desc>
    <defs>
        <path d="M0.970782353,32.4408156 C1.03153697,14.8046688 15.3457,0.529941176 32.9941765,0.529941176 C50.6802353,0.529941176 65.0216471,14.8655294 65.0216471,32.5535294 C65.0216471,50.1555233 50.8162457,64.4407445 33.2461433,64.5761471 L32.7422099,64.5761471 C15.2096582,64.4410336 1.03124758,50.2164601 0.970782353,32.6662309 L0.970782353,32.4408165 L0.970782353,32.4408156 Z" id="path-1"></path>
        <path d="M0.970782353,32.6662309 C1.03124758,50.2164601 15.2096582,64.4410336 32.7422099,64.5761471 L33.2461433,64.5761471 C50.8162457,64.4407445 65.0216471,50.1555233 65.0216471,32.5535294 C65.0216471,14.8655294 50.6802353,0.529941176 32.9941765,0.529941176 C15.3457,0.529941176 1.03153697,14.8046688 0.970782353,32.4408156 L0.970782353,32.66623 L0.970782353,32.6662309 Z" id="path-3"></path>
        <path d="M1.78277647,11.6348398 C7.4667338,16.7894554 15.0107701,19.9300588 23.2882941,19.9300588 C31.2456377,19.9300588 38.5259257,17.027718 44.1276,12.223887 L44.1276,0.526058824 L1.78277647,0.526058824 L1.78277647,11.6348398 L1.78277647,11.6348398 Z" id="path-5"></path>
        <path d="M0.782776471,11.6348398 C6.4667338,16.7894554 14.0107701,19.9300588 22.2882941,19.9300588 C30.2456377,19.9300588 37.5259257,17.027718 43.1276,12.223887 L43.1276,0.526058824 L0.782776471,0.526058824 L0.782776471,11.6348398 L0.782776471,11.6348398 Z" id="path-7"></path>
        <path d="M0.970782353,32.4408156 C1.03153697,14.8046688 15.3457,0.529941176 32.9941765,0.529941176 C50.6802353,0.529941176 65.0216471,14.8655294 65.0216471,32.5535294 C65.0216471,50.1555233 50.8162457,64.4407445 33.2461433,64.5761471 L32.7422099,64.5761471 C15.2096582,64.4410336 1.03124758,50.2164601 0.970782353,32.6662309 L0.970782353,32.4408165 L0.970782353,32.4408156 Z" id="path-9"></path>
        <path d="M0.970782353,32.6662309 C1.03124758,50.2164601 15.2096582,64.4410336 32.7422099,64.5761471 L33.2461433,64.5761471 C50.8162457,64.4407445 65.0216471,50.1555233 65.0216471,32.5535294 C65.0216471,14.8655294 50.6802353,0.529941176 32.9941765,0.529941176 C15.3457,0.529941176 1.03153697,14.8046688 0.970782353,32.4408156 L0.970782353,32.66623 L0.970782353,32.6662309 Z" id="path-11"></path>
        <path d="M1.78471765,11.6366001 C7.46845136,16.7901704 15.0117123,19.9300588 23.2882941,19.9300588 C31.2456377,19.9300588 38.5259257,17.027718 44.1276,12.223887 L44.1276,0.526058824 L1.78471765,0.526058824 L1.78471765,11.6366001 L1.78471765,11.6366001 Z" id="path-13"></path>
        <path d="M1.78471765,11.6366001 C7.46845136,16.7901704 15.0117123,19.9300588 23.2882941,19.9300588 C31.2456377,19.9300588 38.5259257,17.027718 44.1276,12.223887 L44.1276,0.526058824 L1.78471765,0.526058824 L1.78471765,11.6366001 L1.78471765,11.6366001 Z" id="path-15"></path>
        <path d="M0.000194117646,32.4388791 C0.0606552536,14.8886534 14.2371538,0.664084032 31.7715943,0.528970588 L32.2755824,0.528970588 C49.8475802,0.664373154 64.0510588,14.9495943 64.0510588,32.5515882 C64.0510588,50.2395882 49.7115882,64.5751765 32.0235882,64.5751765 C14.3731772,64.5751765 0.0609446262,50.300453 0.000194117646,32.6643097 L0.000194117647,32.4388791 L0.000194117646,32.4388791 Z" id="path-17"></path>
        <path d="M0.000194117646,32.6643097 C0.0609446262,50.300453 14.3731772,64.5751765 32.0235882,64.5751765 C49.7115882,64.5751765 64.0510588,50.2395882 64.0510588,32.5515882 C64.0510588,14.9495943 49.8475802,0.664373152 32.2755824,0.528970588 L31.7715943,0.528970588 C14.2371538,0.664084034 0.0606552536,14.8886534 0.000194117646,32.4388791 L0.000194117647,32.6643088 L0.000194117646,32.6643097 Z" id="path-19"></path>
        <path d="M0.814129412,11.6360368 C6.49757905,16.7889384 14.0405902,19.9281176 22.3177059,19.9281176 C30.2755474,19.9281176 37.5556114,17.0264435 43.1570118,12.2232741 L43.1570118,0.526058824 L0.814129412,0.526058824 L0.814129412,11.6360368 L0.814129412,11.6360368 Z" id="path-21"></path>
        <path d="M0.814129412,11.6360368 C6.49757905,16.7889384 14.0405902,19.9281176 22.3177059,19.9281176 C30.2755474,19.9281176 37.5556114,17.0264435 43.1570118,12.2232741 L43.1570118,0.526058824 L0.814129412,0.526058824 L0.814129412,11.6360368 L0.814129412,11.6360368 Z" id="path-23"></path>
    </defs>
    <g id="Page-1" stroke="none" stroke-width="1" fill="none" fill-rule="evenodd">
        <g id="Artboard-2" transform="translate(-228.000000, -727.000000)">
            <g id="Page-1" transform="translate(229.000000, 728.000000)">
                <polygon id="Fill-1" points="7.19982353 118.749141 82.1428235 19.7277882 157.085824 118.749141"></polygon>
                <polygon id="Stroke-2" stroke="#14123F" stroke-width="3" points="7.19982353 118.749141 82.1428235 19.7277882 157.085824 118.749141"></polygon>
                <g id="Group-20" transform="translate(0.000000, 80.029853)">
                    <g id="Group-6">
                        <mask id="mask-2" fill="white">
                            <use xlink:href="#path-1"></use>
                        </mask>
                        <g id="Clip-5"></g>
                        <path d="M32.9943706,0.528970588 C50.6804294,0.528970588 65.0218412,14.8665 65.0218412,32.5525588 C65.0218412,50.2386176 50.6804294,64.5761471 32.9943706,64.5761471 C15.3083118,64.5761471 0.970782353,50.2386176 0.970782353,32.5525588 C0.970782353,14.8665 15.3083118,0.528970588 32.9943706,0.528970588" id="Fill-4" fill="#EAE8FD" mask="url(#mask-2)"></path>
                    </g>
                    <g id="Group-9">
                        <mask id="mask-4" fill="white">
                            <use xlink:href="#path-3"></use>
                        </mask>
                        <g id="Clip-8"></g>
                        <path d="M32.9943706,0.528970588 C50.6804294,0.528970588 65.0218412,14.8665 65.0218412,32.5525588 C65.0218412,50.2386176 50.6804294,64.5761471 32.9943706,64.5761471 C15.3083118,64.5761471 0.970782353,50.2386176 0.970782353,32.5525588 C0.970782353,14.8665 15.3083118,0.528970588 32.9943706,0.528970588 Z" id="Stroke-7" stroke="#14123F" stroke-width="3" mask="url(#mask-4)"></path>
                    </g>
                    <path d="M32.6701941,15.0858529 C40.7086059,15.0858529 47.2251353,21.6004412 47.2251353,29.6388529 C47.2251353,37.6772647 40.7086059,44.1918529 32.6701941,44.1918529 C24.6317824,44.1918529 18.1171941,37.6772647 18.1171941,29.6388529 C18.1171941,21.6004412 24.6317824,15.0858529 32.6701941,15.0858529" id="Fill-10" fill="#FFFFFF"></path>
                    <path d="M32.6701941,15.0858529 C40.7086059,15.0858529 47.2251353,21.6004412 47.2251353,29.6388529 C47.2251353,37.6772647 40.7086059,44.1918529 32.6701941,44.1918529 C24.6317824,44.1918529 18.1171941,37.6772647 18.1171941,29.6388529 C18.1171941,21.6004412 24.6317824,15.0858529 32.6701941,15.0858529 Z" id="Stroke-12" stroke="#14123F" stroke-width="3"></path>
                    <g id="Group-16" transform="translate(9.705882, 44.647059)">
                        <mask id="mask-6" fill="white">
                            <use xlink:href="#path-5"></use>
                        </mask>
                        <g id="Clip-15"></g>
                        <path d="M44.1276,37.8529412 C43.5898941,17.0707059 34.3168941,0.526058824 22.9571294,0.526058824 C11.5934824,0.526058824 2.32242353,17.0707059 1.78277647,37.8529412 L44.1276,37.8529412 Z" id="Fill-14" fill="#FFFFFF" mask="url(#mask-6)"></path>
                    </g>
                    <g id="Group-19" transform="translate(10.705882, 44.647059)">
                        <mask id="mask-8" fill="white">
                            <use xlink:href="#path-7"></use>
                        </mask>
                        <g id="Clip-18"></g>
                        <path d="M43.1276,37.8529412 C42.5898941,17.0707059 33.3168941,0.526058824 21.9571294,0.526058824 C10.5934824,0.526058824 1.32242353,17.0707059 0.782776471,37.8529412 L43.1276,37.8529412 Z" id="Stroke-17" stroke="#2D1BF1" stroke-width="3" mask="url(#mask-8)"></path>
                    </g>
                </g>
                <g id="Group-25" transform="translate(0.000000, 80.029853)">
                    <path d="M32.9943706,0.528970588 C50.6804294,0.528970588 65.0218412,14.8665 65.0218412,32.5525588 C65.0218412,50.2386176 50.6804294,64.5761471 32.9943706,64.5761471 C15.3083118,64.5761471 0.970782353,50.2386176 0.970782353,32.5525588 C0.970782353,14.8665 15.3083118,0.528970588 32.9943706,0.528970588 Z" id="Stroke-21" stroke="#14123F" stroke-width="3"></path>
                    <path d="M40.8206118,31.2331412 C40.8206118,34.9582588 37.8001412,37.9767882 34.0769647,37.9767882 C30.3518471,37.9767882 27.3352588,34.9582588 27.3352588,31.2331412" id="Fill-23" fill="#14123F"></path>
                </g>
                <g id="Group-42" transform="translate(99.000000, 80.029853)">
                    <g id="Group-28">
                        <mask id="mask-10" fill="white">
                            <use xlink:href="#path-9"></use>
                        </mask>
                        <g id="Clip-27"></g>
                        <path d="M32.9943706,0.528970588 C50.6804294,0.528970588 65.0218412,14.8665 65.0218412,32.5525588 C65.0218412,50.2386176 50.6804294,64.5761471 32.9943706,64.5761471 C15.3083118,64.5761471 0.970782353,50.2386176 0.970782353,32.5525588 C0.970782353,14.8665 15.3083118,0.528970588 32.9943706,0.528970588" id="Fill-26" fill="#EAE8FD" mask="url(#mask-10)"></path>
                    </g>
                    <g id="Group-31">
                        <mask id="mask-12" fill="white">
                            <use xlink:href="#path-11"></use>
                        </mask>
                        <g id="Clip-30"></g>
                        <path d="M32.9943706,0.528970588 C50.6804294,0.528970588 65.0218412,14.8665 65.0218412,32.5525588 C65.0218412,50.2386176 50.6804294,64.5761471 32.9943706,64.5761471 C15.3083118,64.5761471 0.970782353,50.2386176 0.970782353,32.5525588 C0.970782353,14.8665 15.3083118,0.528970588 32.9943706,0.528970588 Z" id="Stroke-29" stroke="#14123F" stroke-width="3" mask="url(#mask-12)"></path>
                    </g>
                    <path d="M32.6701941,15.0858529 C40.7086059,15.0858529 47.2251353,21.6004412 47.2251353,29.6388529 C47.2251353,37.6772647 40.7086059,44.1918529 32.6701941,44.1918529 C24.6317824,44.1918529 18.1171941,37.6772647 18.1171941,29.6388529 C18.1171941,21.6004412 24.6317824,15.0858529 32.6701941,15.0858529" id="Fill-32" fill="#FFFFFF"></path>
                    <path d="M32.6701941,15.0858529 C40.7086059,15.0858529 47.2251353,21.6004412 47.2251353,29.6388529 C47.2251353,37.6772647 40.7086059,44.1918529 32.6701941,44.1918529 C24.6317824,44.1918529 18.1171941,37.6772647 18.1171941,29.6388529 C18.1171941,21.6004412 24.6317824,15.0858529 32.6701941,15.0858529 Z" id="Stroke-34" stroke="#14123F" stroke-width="3"></path>
                    <g id="Group-38" transform="translate(9.705882, 44.647059)">
                        <mask id="mask-14" fill="white">
                            <use xlink:href="#path-13"></use>
                        </mask>
                        <g id="Clip-37"></g>
                        <path d="M44.1276,37.8529412 C43.5898941,17.0707059 34.3168941,0.526058824 22.9571294,0.526058824 C11.5934824,0.526058824 2.32242353,17.0707059 1.78471765,37.8529412 L44.1276,37.8529412 Z" id="Fill-36" fill="#FFFFFF" mask="url(#mask-14)"></path>
                    </g>
                    <g id="Group-41" transform="translate(9.705882, 44.647059)">
                        <mask id="mask-16" fill="white">
                            <use xlink:href="#path-15"></use>
                        </mask>
                        <g id="Clip-40"></g>
                        <path d="M44.1276,37.8529412 C43.5898941,17.0707059 34.3168941,0.526058824 22.9571294,0.526058824 C11.5934824,0.526058824 2.32242353,17.0707059 1.78471765,37.8529412 L44.1276,37.8529412 Z" id="Stroke-39" stroke="#2D1BF1" stroke-width="3" mask="url(#mask-16)"></path>
                    </g>
                </g>
                <g id="Group-47" transform="translate(99.000000, 80.029853)">
                    <path d="M32.9943706,0.528970588 C50.6804294,0.528970588 65.0218412,14.8665 65.0218412,32.5525588 C65.0218412,50.2386176 50.6804294,64.5761471 32.9943706,64.5761471 C15.3083118,64.5761471 0.970782353,50.2386176 0.970782353,32.5525588 C0.970782353,14.8665 15.3083118,0.528970588 32.9943706,0.528970588 Z" id="Stroke-43" stroke="#14123F" stroke-width="3"></path>
                    <path d="M37.7457882,31.2331412 C37.7457882,34.9582588 34.7253176,37.9767882 31.0021412,37.9767882 C27.2770235,37.9767882 24.2604353,34.9582588 24.2604353,31.2331412" id="Fill-45" fill="#14123F"></path>
                </g>
                <g id="Group-64" transform="translate(50.470588, 0.441618)">
                    <g id="Group-50">
                        <mask id="mask-18" fill="white">
                            <use xlink:href="#path-17"></use>
                        </mask>
                        <g id="Clip-49"></g>
                        <path d="M32.0237824,0.528970588 C49.7098412,0.528970588 64.0512529,14.8665 64.0512529,32.5525588 C64.0512529,50.2386176 49.7098412,64.5761471 32.0237824,64.5761471 C14.3377235,64.5761471 0.000194117647,50.2386176 0.000194117647,32.5525588 C0.000194117647,14.8665 14.3377235,0.528970588 32.0237824,0.528970588" id="Fill-48" fill="#EAE8FD" mask="url(#mask-18)"></path>
                    </g>
                    <g id="Group-53">
                        <mask id="mask-20" fill="white">
                            <use xlink:href="#path-19"></use>
                        </mask>
                        <g id="Clip-52"></g>
                        <path d="M32.0237824,0.528970588 C49.7098412,0.528970588 64.0512529,14.8665 64.0512529,32.5525588 C64.0512529,50.2386176 49.7098412,64.5761471 32.0237824,64.5761471 C14.3377235,64.5761471 0.000194117647,50.2386176 0.000194117647,32.5525588 C0.000194117647,14.8665 14.3377235,0.528970588 32.0237824,0.528970588 Z" id="Stroke-51" stroke="#14123F" stroke-width="3" mask="url(#mask-20)"></path>
                    </g>
                    <path d="M31.6996059,15.0858529 C39.7380176,15.0858529 46.2545471,21.6004412 46.2545471,29.6388529 C46.2545471,37.6772647 39.7380176,44.1918529 31.6996059,44.1918529 C23.6611941,44.1918529 17.1466059,37.6772647 17.1466059,29.6388529 C17.1466059,21.6004412 23.6611941,15.0858529 31.6996059,15.0858529" id="Fill-54" fill="#FFFFFF"></path>
                    <path d="M31.6996059,15.0858529 C39.7380176,15.0858529 46.2545471,21.6004412 46.2545471,29.6388529 C46.2545471,37.6772647 39.7380176,44.1918529 31.6996059,44.1918529 C23.6611941,44.1918529 17.1466059,37.6772647 17.1466059,29.6388529 C17.1466059,21.6004412 23.6611941,15.0858529 31.6996059,15.0858529 Z" id="Stroke-56" stroke="#14123F" stroke-width="3"></path>
                    <g id="Group-60" transform="translate(9.705882, 44.647059)">
                        <mask id="mask-22" fill="white">
                            <use xlink:href="#path-21"></use>
                        </mask>
                        <g id="Clip-59"></g>
                        <path d="M43.1570118,37.8529412 C42.6193059,17.0707059 33.3463059,0.526058824 21.9865412,0.526058824 C10.6228941,0.526058824 1.35183529,17.0707059 0.814129412,37.8529412 L43.1570118,37.8529412 Z" id="Fill-58" fill="#FFFFFF" mask="url(#mask-22)"></path>
                    </g>
                    <g id="Group-63" transform="translate(9.705882, 44.647059)">
                        <mask id="mask-24" fill="white">
                            <use xlink:href="#path-23"></use>
                        </mask>
                        <g id="Clip-62"></g>
                        <path d="M43.1570118,37.8529412 C42.6193059,17.0707059 33.3463059,0.526058824 21.9865412,0.526058824 C10.6228941,0.526058824 1.35183529,17.0707059 0.814129412,37.8529412 L43.1570118,37.8529412 Z" id="Stroke-61" stroke="#2D1BF1" stroke-width="3" mask="url(#mask-24)"></path>
                    </g>
                </g>
                <g id="Group-69" transform="translate(50.470588, 0.441618)">
                    <path d="M32.0237824,0.528970588 C49.7098412,0.528970588 64.0512529,14.8665 64.0512529,32.5525588 C64.0512529,50.2386176 49.7098412,64.5761471 32.0237824,64.5761471 C14.3377235,64.5761471 0.000194117647,50.2386176 0.000194117647,32.5525588 C0.000194117647,14.8665 14.3377235,0.528970588 32.0237824,0.528970588 Z" id="Stroke-65" stroke="#14123F" stroke-width="3"></path>
                    <path d="M38.2330235,32.6890235 C38.2330235,36.4141412 35.2125529,39.4326706 31.4893765,39.4326706 C27.7642588,39.4326706 24.7476706,36.4141412 24.7476706,32.6890235" id="Fill-67" fill="#14123F"></path>
                </g>
            </g>
        </g>
    </g>
</svg>