<?xml version="1.0" encoding="UTF-8" standalone="no"?>
<svg width="167px" height="157px" viewBox="0 0 167 157" version="1.1" xmlns="http://www.w3.org/2000/svg" xmlns:xlink="http://www.w3.org/1999/xlink">
    <!-- Generator: Sketch 43.1 (39012) - http://www.bohemiancoding.com/sketch -->
    <title>Group 3</title>
    <desc>Created with Sketch.</desc>
    <defs></defs>
    <g id="Page-1" stroke="none" stroke-width="1" fill="none" fill-rule="evenodd">
        <g id="Artboard-2" transform="translate(-656.000000, -721.000000)">
            <g id="Group-3" transform="translate(657.000000, 721.000000)">
                <g id="Page-1" transform="translate(0.000000, 17.600000)">
                    <path d="M14.48175,85.5046875 C12.33675,83.5359375 10.85925,81.2728125 9.582375,78.9384375 C4.129875,70.9359375 0.93675,61.2721875 0.93675,50.8584375 C0.93675,23.2884375 23.28675,0.9365625 50.858625,0.9365625 C78.428625,0.9365625 100.7805,23.2884375 100.7805,50.8584375 C100.7805,78.4321875 78.428625,100.780312 50.858625,100.780312 C42.604875,100.780312 34.8255,98.7646875 27.964875,95.2190625 C23.573625,95.3896875 13.006125,100.364062 13.006125,100.364062 C13.006125,100.364062 16.546125,87.4003125 14.48175,85.5046875 Z" id="Fill-1" fill="#EAE8FD"></path>
                    <path d="M14.48175,85.5046875 C12.33675,83.5359375 10.85925,81.2728125 9.582375,78.9384375 C4.129875,70.9359375 0.93675,61.2721875 0.93675,50.8584375 C0.93675,23.2884375 23.28675,0.9365625 50.858625,0.9365625 C78.428625,0.9365625 100.7805,23.2884375 100.7805,50.8584375 C100.7805,78.4321875 78.428625,100.780312 50.858625,100.780312 C42.604875,100.780312 34.8255,98.7646875 27.964875,95.2190625 C23.573625,95.3896875 13.006125,100.364062 13.006125,100.364062 C13.006125,100.364062 16.546125,87.4003125 14.48175,85.5046875 Z" id="Stroke-3" stroke="#14123F" stroke-width="3"></path>
                    <path d="M150.007312,105.192187 C152.152312,103.223437 153.629812,100.960312 154.908562,98.6259375 C160.361062,90.6234375 163.552312,80.9596875 163.552312,70.5459375 C163.552312,42.9759375 141.202312,20.6240625 113.630437,20.6240625 C86.0604375,20.6240625 63.7085625,42.9759375 63.7085625,70.5459375 C63.7085625,98.1196875 86.0604375,120.467812 113.630437,120.467812 C121.884187,120.467812 129.665437,118.452187 136.524187,114.906562 C140.917312,115.077187 151.482937,120.051562 151.482937,120.051562 C151.482937,120.051562 147.942937,107.087812 150.007312,105.192187" id="Fill-5" fill="#FFFFFF"></path>
                    <path d="M150.007312,105.192187 C152.152312,103.223437 153.629812,100.960312 154.908562,98.6259375 C160.361062,90.6234375 163.552312,80.9596875 163.552312,70.5459375 C163.552312,42.9759375 141.202312,20.6240625 113.630437,20.6240625 C86.0604375,20.6240625 63.7085625,42.9759375 63.7085625,70.5459375 C63.7085625,98.1196875 86.0604375,120.467812 113.630437,120.467812 C121.884187,120.467812 129.665437,118.452187 136.524187,114.906562 C140.917312,115.077187 151.482937,120.051562 151.482937,120.051562 C151.482937,120.051562 147.942937,107.087812 150.007312,105.192187 Z" id="Stroke-7" stroke="#14123F" stroke-width="3"></path>
                    <path d="M52.7025397,64.1850723 L53.9231332,22.3361523 L45.5533492,22.3361523 L46.7739427,64.1850723 L52.7025397,64.1850723 Z M49.7382412,82.0580486 C52.8769102,82.0580486 54.882171,79.7040468 54.882171,76.6525631 C54.882171,73.5138941 52.8769102,71.2470776 49.7382412,71.2470776 C46.7739427,71.2470776 44.5943115,73.5138941 44.5943115,76.6525631 C44.5943115,79.7040468 46.6867575,82.0580486 49.7382412,82.0580486 Z" id="!" fill="#15123F"></path>
                    <g id="Group-12" transform="translate(80.625000, 72.692437)" stroke="#2D1BF1" stroke-width="3">
                        <path d="M64.2095625,1.7985 C64.2095625,19.027875 50.2333125,32.9985 33.0020625,32.9985 C15.7708125,32.9985 1.8020625,19.027875 1.8020625,1.7985" id="Stroke-11"></path>
                    </g>
                </g>
                <g id="Page-1" transform="translate(59.400000, 133.100000)" stroke="#15123F" stroke-width="3" stroke-linecap="round" stroke-linejoin="round">
                    <path d="M15.17549,6.85564 L8.20369,13.41824" id="Stroke-1"></path>
                    <g id="Group-6" transform="translate(0.000000, 0.141790)">
                        <path d="M21.13749,12.57476 L16.56809,21.44956" id="Stroke-2"></path>
                        <path d="M9.68517,0.40821 L0.54967,4.43421" id="Stroke-4"></path>
                    </g>
                </g>
                <g id="Page-1" transform="translate(96.800000, 11.550000) rotate(-180.000000) translate(-96.800000, -11.550000) translate(85.800000, 0.000000)" stroke="#15123F" stroke-width="3" stroke-linecap="round" stroke-linejoin="round">
                    <path d="M15.17549,6.85564 L8.20369,13.41824" id="Stroke-1"></path>
                    <g id="Group-6" transform="translate(0.000000, 0.141790)">
                        <path d="M21.13749,12.57476 L16.56809,21.44956" id="Stroke-2"></path>
                        <path d="M9.68517,0.40821 L0.54967,4.43421" id="Stroke-4"></path>
                    </g>
                </g>
            </g>
        </g>
    </g>
</svg>