<?xml version="1.0" encoding="UTF-8" standalone="no"?>
<svg width="147px" height="154px" viewBox="0 0 147 154" version="1.1" xmlns="http://www.w3.org/2000/svg" xmlns:xlink="http://www.w3.org/1999/xlink">
    <!-- Generator: Sketch 43.1 (39012) - http://www.bohemiancoding.com/sketch -->
    <title>Page 1</title>
    <desc>Created with Sketch.</desc>
    <defs></defs>
    <g id="Page-1" stroke="none" stroke-width="1" fill="none" fill-rule="evenodd">
        <g id="Artboard-2" transform="translate(-1029.000000, -402.000000)">
            <g id="Page-1" transform="translate(1031.000000, 404.000000)">
                <polygon id="Stroke-1" stroke="#14123F" stroke-width="3" fill="#FFFFFF" points="122.567875 0.138206388 35.7304975 0.138206388 35.7304975 149.84567 143.38406 149.84567 143.38406 20.9520885"></polygon>
                <polygon id="Stroke-3" stroke="#14123F" stroke-width="3" stroke-linecap="round" stroke-linejoin="round" points="122.567875 0.138206388 122.567875 20.9520885 143.38406 20.9520885"></polygon>
                <path d="M120.727657,34.2535319 C125.092675,34.2535319 128.635365,37.7939189 128.635365,42.1612408 C128.635365,46.5285627 125.092675,50.0689496 120.727657,50.0689496 C116.358031,50.0689496 112.817644,46.5285627 112.817644,42.1612408 C112.817644,37.7939189 116.358031,34.2535319 120.727657,34.2535319" id="Fill-5" fill="#FFFFFF"></path>
                <path d="M120.727657,34.2535319 C125.092675,34.2535319 128.635365,37.7939189 128.635365,42.1612408 C128.635365,46.5285627 125.092675,50.0689496 120.727657,50.0689496 C116.358031,50.0689496 112.817644,46.5285627 112.817644,42.1612408 C112.817644,37.7939189 116.358031,34.2535319 120.727657,34.2535319 Z" id="Stroke-7" stroke="#2D1BF1" stroke-width="3"></path>
                <path d="M58.6766738,117.460688 C63.0439957,117.460688 66.5866861,121.001075 66.5866861,125.368397 C66.5866861,129.735719 63.0439957,133.276106 58.6766738,133.276106 C54.309352,133.276106 50.7712684,129.735719 50.7712684,125.368397 C50.7712684,121.001075 54.309352,117.460688 58.6766738,117.460688" id="Fill-9" fill="#FFFFFF"></path>
                <path d="M58.6766738,117.460688 C63.0439957,117.460688 66.5866861,121.001075 66.5866861,125.368397 C66.5866861,129.735719 63.0439957,133.276106 58.6766738,133.276106 C54.309352,133.276106 50.7712684,129.735719 50.7712684,125.368397 C50.7712684,121.001075 54.309352,117.460688 58.6766738,117.460688 Z" id="Stroke-11" stroke="#2D1BF1" stroke-width="3"></path>
                <path d="M59.3626382,111.279177 C59.3626382,111.279177 58.5241861,94.5953624 79.0086763,95.0168919 C97.1482647,95.394656 91.2030866,95.394656 101.513283,95.3186425 C108.497313,95.2679668 119.282018,96.0718673 119.890126,80.2541462 C120.498234,64.4387285 120.19418,62.4439496 120.19418,62.4439496" id="Stroke-13" stroke="#14123F" stroke-width="3"></path>
                <polyline id="Stroke-15" stroke="#14123F" stroke-width="3" points="107.300676 73.4546222 120.462531 60.2927672 133.350276 71.2271959"></polyline>
                <polyline id="Stroke-17" stroke="#14123F" stroke-width="3" points="81.2791769 133.161855 89.0901413 125.350891 96.735258 133.000614"></polyline>
                <polyline id="Stroke-19" stroke="#14123F" stroke-width="3" points="96.7350276 117.840986 88.9286701 125.649647 81.2789466 117.99762"></polyline>
                <polygon id="Fill-21" fill="#FFFFFF" points="0.532785627 102.461379 2.63121929 110.389819 10.946637 112.985795 47.2166001 76.8402181 36.7981419 66.3158016"></polygon>
                <polygon id="Stroke-23" stroke="#14123F" stroke-width="3" points="0.532785627 102.461379 2.63121929 110.389819 10.946637 112.985795 47.2166001 76.8402181 36.7981419 66.3158016"></polygon>
                <path d="M81.6164005,78.9725123 C64.9763514,88.0365479 44.097973,81.8103501 34.9832617,65.0689496 C25.8639435,48.3298526 31.9611486,27.4077088 48.5988943,18.3505835 C65.2389435,9.28424447 86.1173219,15.5104423 95.23664,32.2518428 C104.353655,48.9909398 98.2564496,69.9061732 81.6164005,78.9725123" id="Fill-25" fill="#FFFFFF"></path>
                <path d="M81.6164005,78.9725123 C64.9763514,88.0365479 44.097973,81.8103501 34.9832617,65.0689496 C25.8639435,48.3298526 31.9611486,27.4077088 48.5988943,18.3505835 C65.2389435,9.28424447 86.1173219,15.5104423 95.23664,32.2518428 C104.353655,48.9909398 98.2564496,69.9061732 81.6164005,78.9725123 Z" id="Stroke-27" stroke="#14123F" stroke-width="3"></path>
                <path d="M75.8713913,69.6104115 C64.4624539,75.8250921 50.1442721,71.5568182 43.8927365,60.0764742 C37.636594,48.5961302 41.8242475,34.2480037 53.2331849,28.03793 C64.6421222,21.8209459 78.9603041,26.0915233 85.2118397,37.5741708 C91.4656787,49.0499079 87.2849355,63.395731 75.8713913,69.6104115" id="Fill-29" fill="#EAE8FD"></path>
                <path d="M75.8713913,69.6104115 C64.4624539,75.8250921 50.1442721,71.5568182 43.8927365,60.0764742 C37.636594,48.5961302 41.8242475,34.2480037 53.2331849,28.03793 C64.6421222,21.8209459 78.9603041,26.0915233 85.2118397,37.5741708 C91.4656787,49.0499079 87.2849355,63.395731 75.8713913,69.6104115 Z" id="Stroke-31" stroke="#14123F" stroke-width="3"></path>
                <g id="Group-36" transform="translate(8.200246, 84.198096)">
                    <polyline id="Fill-33" fill="#FFFFFF" points="9.32040848 1.39242936 0.535089066 10.0625768 2.63582617 17.9887131 10.9489404 20.5869932 19.7388667 11.9191493"></polyline>
                    <polyline id="Stroke-35" stroke="#14123F" stroke-width="3" points="9.32040848 1.39242936 0.535089066 10.0625768 2.63582617 17.9887131 10.9489404 20.5869932 19.7388667 11.9191493"></polyline>
                </g>
            </g>
        </g>
    </g>
</svg>