<?xml version="1.0" encoding="UTF-8" standalone="no"?>
<svg width="17px" height="17px" viewBox="0 0 17 17" version="1.1" xmlns="http://www.w3.org/2000/svg" xmlns:xlink="http://www.w3.org/1999/xlink">
    <!-- Generator: Sketch 41.2 (35397) - http://www.bohemiancoding.com/sketch -->
    <title>Shape</title>
    <desc>Created with Sketch.</desc>
    <defs></defs>
    <g id="Page-1" stroke="none" stroke-width="1" fill="none" fill-rule="evenodd">
        <g id="styleUp-home" transform="translate(-1309.000000, -2904.000000)" fill="#4A53FF">
            <g id="footer" transform="translate(0.000000, 1915.000000)">
                <g id="social" transform="translate(1284.000000, 988.000000)">
                    <path d="M40.1615385,1 L26.6846154,1 C25.7580769,1 25,1.765 25,2.7 L25,16.3 C25,17.235 25.7580769,18 26.6846154,18 L40.1615385,18 C41.0880769,18 41.8461538,17.235 41.8461538,16.3 L41.8461538,2.7 C41.8461538,1.765 41.0880769,1 40.1615385,1 Z M33.4230769,6.1 C35.2761538,6.1 36.7923077,7.63 36.7923077,9.5 C36.7923077,11.37 35.2761538,12.9 33.4230769,12.9 C31.57,12.9 30.0538462,11.37 30.0538462,9.5 C30.0538462,7.63 31.57,6.1 33.4230769,6.1 Z M27.1057692,16.3 C26.8530769,16.3 26.6846154,16.13 26.6846154,15.875 L26.6846154,8.65 L28.4534615,8.65 C28.3692308,8.905 28.3692308,9.245 28.3692308,9.5 C28.3692308,12.305 30.6434615,14.6 33.4230769,14.6 C36.2026923,14.6 38.4769231,12.305 38.4769231,9.5 C38.4769231,9.245 38.4769231,8.905 38.3926923,8.65 L40.1615385,8.65 L40.1615385,15.875 C40.1615385,16.13 39.9930769,16.3 39.7403846,16.3 L27.1057692,16.3 Z M40.1615385,4.825 C40.1615385,5.08 39.9930769,5.25 39.7403846,5.25 L38.0557692,5.25 C37.8030769,5.25 37.6346154,5.08 37.6346154,4.825 L37.6346154,3.125 C37.6346154,2.87 37.8030769,2.7 38.0557692,2.7 L39.7403846,2.7 C39.9930769,2.7 40.1615385,2.87 40.1615385,3.125 L40.1615385,4.825 Z" id="Shape"></path>
                </g>
            </g>
        </g>
    </g>
</svg>