<?xml version="1.0" encoding="UTF-8" standalone="no"?>
<svg width="98px" height="30px" viewBox="0 0 98 30" version="1.1" xmlns="http://www.w3.org/2000/svg" xmlns:xlink="http://www.w3.org/1999/xlink">
    <!-- Generator: Sketch 41.2 (35397) - http://www.bohemiancoding.com/sketch -->
    <title>logo</title>
    <desc>Created with Sketch.</desc>
    <defs></defs>
    <g id="Page-1" stroke="none" stroke-width="1" fill="none" fill-rule="evenodd">
        <g id="styleUp-home" transform="translate(-49.000000, -2896.000000)" fill="#4A53FF">
            <g id="footer" transform="translate(0.000000, 1915.000000)">
                <g id="logo_styleup" transform="translate(49.000000, 981.000000)">
                    <g id="logo">
                        <g id="Group-3" transform="translate(0.000000, 6.603118)">
                            <path d="M5.27478805,17.5096878 C3.10903945,17.5096878 1.11795271,16.7759756 1.11795271,14.9240169 L1.11795271,13.736227 C2.37651113,14.3650398 3.77292975,14.7139256 5.13488332,14.7139256 C6.88179396,14.7139256 8.31326178,13.9807978 8.31326178,12.7573597 C8.31326178,9.43651548 -0.000116830673,11.3939581 -0.000116830673,5.48861177 C-0.000116830673,2.30919202 2.55029676,0.00227915394 6.39256551,0.00227915394 C9.60657732,0.00227915394 11.7372767,1.74992271 11.7372767,3.70619651 C11.7372767,5.06872149 11.0038722,5.6285752 10.1305629,5.6285752 L9.32735202,5.6285752 L9.32735202,5.03424198 C9.32735202,3.77573992 8.2440396,2.6925574 6.28800206,2.6925574 C4.26128196,2.6925574 3.03864897,3.77573992 3.03864897,4.96411417 C3.03864897,8.98273008 11.353488,6.74682163 11.353488,12.338346 C11.353488,15.798277 8.45404274,17.5096878 5.27478805,17.5096878" id="Fill-1"></path>
                        </g>
                        <path d="M18.0475642,9.6449704 L18.0475642,16.5654168 C18.0475642,19.7448366 18.8864085,21.3168684 21.5054601,21.3168684 C22.6933359,21.3168684 23.8116976,21.0375259 24.719764,20.5480922 L24.719764,21.6312747 C24.719764,23.5887173 22.0297377,24.1129227 20.4230239,24.1129227 C17.3836739,24.1129227 15.1133619,22.7498134 15.1133619,17.2988369 L15.1133619,9.50500698 L12.6333388,8.56149568 C12.6680959,8.03845907 12.8772228,7.33834973 13.2277148,6.95410776 L15.1133619,6.95410776 L15.1133619,4.7535554 C15.1133619,3.07545527 15.4629777,3.07545527 18.0475642,3.07545527 L18.0475642,6.95410776 L23.7757721,6.95410776 C24.8944258,6.95410776 24.8944258,7.75853222 24.8944258,9.6449704 L18.0475642,9.6449704 Z" id="Fill-4"></path>
                        <path d="M40.2118909,7.37385194 L34.2038735,23.5540917 C33.645715,28.1316848 31.5491886,29.8793283 28.8597465,29.8793283 C27.3929374,29.8793283 26.1697202,29.3551229 26.1697202,27.9221779 L26.1697202,26.8387032 C26.7635121,26.9786666 27.288666,27.04821 27.6718706,27.04821 C29.4541225,27.04821 30.7109285,26.0702192 31.0947173,23.903562 C27.9867293,18.2065537 25.4713649,12.4066914 23.5851337,6.95396166 L27.1487613,6.95396166 C28.5104228,11.3579883 30.6066571,16.1453804 32.5618184,20.1289324 L36.963122,6.95396166 L40.2118909,6.95396166 L40.2118909,7.37385194 Z" id="Fill-6"></path>
                        <path d="M42.2740983,23.7641245 L42.2740983,1.64259793 C42.2740983,0.000146099612 42.6593474,0.000146099612 45.2442261,0.000146099612 L45.2442261,23.7641245 L42.2740983,23.7641245 Z" id="Fill-8"></path>
                        <path d="M50.6578966,14.2585039 L58.1683564,14.2585039 C59.0060323,14.2585039 59.2861339,13.5583946 59.2861339,13.1046092 C59.2861339,10.5186461 57.5742724,9.19118501 55.3039604,9.19118501 C52.1244136,9.19118501 50.7978013,11.4276779 50.6578966,14.2585039 L50.6578966,14.2585039 Z M61.1717809,21.596503 C61.1717809,23.41369 58.3768992,24.1129227 55.7572634,24.1129227 C50.9724632,24.1129227 47.5142753,21.0375259 47.5142753,14.8174811 C47.5142753,10.0648607 50.7615838,6.60551408 55.3734746,6.60551408 C59.8448766,6.60551408 62.4645123,9.68061871 62.4645123,14.2237322 C62.4645123,16.1113392 61.0321683,16.634668 59.6007005,16.634668 L50.7978013,16.634668 C51.3212027,19.7088961 53.3128736,21.3168684 57.1542662,21.3168684 C58.5521452,21.3168684 59.9146829,21.0027542 61.1717809,20.5133205 L61.1717809,21.596503 Z" id="Fill-10"></path>
                        <path d="M72.1676909,24.1128059 C68.2559079,24.1128059 65.1114104,21.9812125 65.1114104,16.8095785 L65.1114104,8.49212759 C65.1114104,6.81490405 65.4957833,6.81490405 68.0812461,6.81490405 L68.0812461,16.2506014 C68.0812461,19.5699845 69.3739775,21.213313 72.1676909,21.213313 C74.9970378,21.213313 76.4991881,19.5699845 76.4991881,16.2506014 L76.4991881,6.95399088 L79.4336826,6.95399088 L79.4336826,16.8095785 C79.4336826,21.9812125 76.1153994,24.1128059 72.1676909,24.1128059" id="Fill-12"></path>
                        <g id="Group-16" transform="translate(81.900066, 6.603118)">
                            <path d="M8.45310809,2.6925574 C5.27414548,2.6925574 3.35344922,5.73405912 3.35344922,9.92653357 C3.35344922,12.1980903 4.99404394,14.7492818 7.57979881,14.7492818 C11.0382788,14.7492818 12.8196545,11.3939581 12.8196545,8.03951099 C12.8196545,5.24345662 11.5619723,2.6925574 8.45310809,2.6925574 L8.45310809,2.6925574 Z M0.0342898025,22.926477 L0.0342898025,1.88900954 C0.0342898025,0.211785997 0.418662716,0.211785997 3.0029572,0.211785997 L3.0029572,4.02001847 C4.26151562,1.46999585 6.42668007,0.00227915394 9.32554114,0.00227915394 C13.5881082,0.00227915394 15.9629837,3.35731064 15.9629837,8.03951099 C15.9629837,13.1418938 12.7142148,17.5096878 8.1385415,17.5096878 C6.00755003,17.5096878 4.15636802,16.6360121 3.0029572,14.8191174 L3.0029572,22.926477 L0.0342898025,22.926477 Z" id="Fill-14"></path>
                        </g>
                    </g>
                </g>
            </g>
        </g>
    </g>
</svg>