<?xml version="1.0" encoding="UTF-8" standalone="no"?>
<svg width="27px" height="94px" viewBox="0 0 27 94" version="1.1" xmlns="http://www.w3.org/2000/svg" xmlns:xlink="http://www.w3.org/1999/xlink">
    <!-- Generator: Sketch 41.2 (35397) - http://www.bohemiancoding.com/sketch -->
    <title>Group</title>
    <desc>Created with Sketch.</desc>
    <defs></defs>
    <g id="Page-1" stroke="none" stroke-width="1" fill="none" fill-rule="evenodd">
        <g id="Group" fill="#FFFFFF">
            <g id="Group-9" transform="translate(0.000000, 75.000000)">
                <polygon id="Line" points="0 3 27 3 27 0 0 0"></polygon>
                <polygon id="Line" points="0 11 27 11 27 8 0 8"></polygon>
                <polygon id="Line" points="0 19 27 19 27 16 0 16"></polygon>
            </g>
            <path d="M-17.248,40 L-15.664,28.864 L-10.288,40.672 L-4.84,28.864 L-3.328,40 L-1.504,40 L-4,23.08 L-10.264,36.616 L-16.408,23.104 L-19.072,40 L-17.248,40 Z M10.496,23.992 L2.192,23.992 L2.192,40 L10.496,40 L10.496,38.32 L3.968,38.32 L3.968,32.104 L10.304,32.104 L10.304,30.424 L3.968,30.424 L3.968,25.672 L10.496,25.672 L10.496,23.992 Z M15.536,40 L15.536,27.64 L28.016,40.72 L28.016,23.992 L26.24,23.992 L26.24,36.4 L13.76,23.32 L13.76,40 L15.536,40 Z M33.92,23.992 L32.144,23.992 L32.144,34.288 C32.144,35.632 32.288,36.928 33.152,38.128 C34.112,39.448 35.792,40.288 37.832,40.288 C39.872,40.288 41.552,39.448 42.512,38.128 C43.376,36.928 43.52,35.632 43.52,34.288 L43.52,23.992 L41.744,23.992 L41.744,33.808 C41.744,35.152 41.744,36.616 40.472,37.696 C39.824,38.248 38.72,38.608 37.832,38.608 C36.944,38.608 35.84,38.248 35.192,37.696 C33.92,36.616 33.92,35.152 33.92,33.808 L33.92,23.992 Z" id="MENU" transform="translate(12.224000, 31.900000) rotate(-90.000000) translate(-12.224000, -31.900000) "></path>
        </g>
    </g>
</svg>