<?xml version="1.0" encoding="UTF-8" standalone="no"?>
<svg width="15px" height="20px" viewBox="0 0 15 20" version="1.1" xmlns="http://www.w3.org/2000/svg" xmlns:xlink="http://www.w3.org/1999/xlink">
    <!-- Generator: Sketch 41.2 (35397) - http://www.bohemiancoding.com/sketch -->
    <title>XMLID_799_</title>
    <desc>Created with Sketch.</desc>
    <defs></defs>
    <g id="Page-1" stroke="none" stroke-width="1" fill="none" fill-rule="evenodd">
        <g id="styleUp-home" transform="translate(-1362.000000, -36.000000)" fill="#FFFFFF">
            <g id="top-card">
                <g id="social" transform="translate(1305.000000, 36.000000)">
                    <path d="M70.0546436,2.04948312 C68.7409556,0.727885168 66.9229548,0 64.9355569,0 C61.8997078,0 60.0325252,1.30411684 59.0007551,2.39807329 C57.7291701,3.7462477 57,5.53635239 57,7.30949201 C57,9.53578595 57.8885953,11.2445486 59.3766661,11.8802548 C59.4765684,11.9231513 59.5770863,11.9447607 59.6756344,11.9447607 C59.9895604,11.9447607 60.2383006,11.7295044 60.3244764,11.384204 C60.3747045,11.1861062 60.4911034,10.6974091 60.5417009,10.4852491 C60.6500361,10.0662829 60.5625062,9.86476631 60.3262614,9.57300589 C59.8958751,9.03934814 59.6954548,8.40828641 59.6954548,7.58699662 C59.6954548,5.14751051 61.4288188,2.55482276 64.6414514,2.55482276 C67.1905305,2.55482276 68.7740102,4.07309936 68.7740102,6.51710089 C68.7740102,8.05937371 68.4570065,9.48766451 67.8812293,10.539047 C67.4811275,11.2695769 66.7775639,12.1404073 65.6974738,12.1404073 C65.2304012,12.1404073 64.8108483,11.9393422 64.546104,11.5888169 C64.2960097,11.2574498 64.2135887,10.8293883 64.3141681,10.3832652 C64.427797,9.87921564 64.5827287,9.35342762 64.7326746,8.84512072 C65.0061595,7.91675105 65.2646868,7.03992164 65.2646868,6.34035458 C65.2646868,5.14376916 64.5627236,4.33976697 63.5180887,4.33976697 C62.1904895,4.33976697 61.1504095,5.75283436 61.1504095,7.55674333 C61.1504095,8.44144247 61.3747743,9.10314453 61.4763386,9.35723347 C61.3090961,10.099826 60.3151202,14.5146779 60.1265799,15.3471917 C60.0175675,15.8331796 59.3608467,19.6716063 60.4478308,19.977687 C61.6691261,20.3215683 62.7607884,16.5831903 62.8718936,16.1607408 C62.9619472,15.8171821 63.2770428,14.5180967 63.470138,13.719513 C64.0597034,14.3146449 65.008991,14.7169686 65.9326721,14.7169686 C67.6739766,14.7169686 69.2399749,13.8958078 70.3422245,12.4048817 C71.4112349,10.9587873 72,8.94323427 72,6.72977702 C72,4.99934033 71.2908966,3.29341591 70.0546436,2.04948312 Z" id="XMLID_799_"></path>
                </g>
            </g>
        </g>
    </g>
</svg>