<?xml version="1.0" encoding="UTF-8" standalone="no"?>
<svg width="865px" height="865px" viewBox="0 0 865 865" version="1.1" xmlns="http://www.w3.org/2000/svg" xmlns:xlink="http://www.w3.org/1999/xlink">
    <!-- Generator: Sketch 46.1 (44463) - http://www.bohemiancoding.com/sketch -->
    <title>Group 13</title>
    <desc>Created with Sketch.</desc>
    <defs></defs>
    <g id="Page-1" stroke="none" stroke-width="1" fill="none" fill-rule="evenodd">
        <g id="Desktop-HD" transform="translate(-252.000000, -2128.000000)">
            <g id="Group-13" transform="translate(252.000000, 2128.000000)">
                <circle id="Oval" fill="#FFFFFF" cx="432.5" cy="432.5" r="432.5"></circle>
                <g id="Group-8" transform="translate(319.000000, 319.000000)" fill="#2D1BF1">
                    <path d="M227.99989,113.840071 C227.999963,113.893372 228,113.946682 228,114 C228,176.960461 176.960461,228 114,228 C51.0395385,228 0,176.960461 0,114 C0,51.0395385 51.0395385,0 114,0 C130.914563,0 146.968735,3.68376993 161.404006,10.2927984 C188.765285,22.8198565 210.310309,45.8565392 220.873765,74.2375346 L114,113.840071 L227.999892,113.840071 L227.99989,113.840071 Z" id="Combined-Shape"></path>
                </g>
                <polygon id="X" fill="#EAE8FD" points="414.832259 120.920084 414.832259 138.774532 427.29301 144.920084 414.832259 151.065637 414.832259 168.920084 452.956803 144.920084"></polygon>
                <polygon id="X" fill="#EAE8FD" points="732 415 714.145553 415 708 427.46075 701.854447 415 684 415 708 453.124544"></polygon>
                <polygon id="X" fill="#EAE8FD" points="441.124544 732 441.124544 714.145553 428.663793 708 441.124544 701.854447 441.124544 684 403 708"></polygon>
                <polygon id="X" fill="#EAE8FD" points="120.070084 438.823014 137.924532 438.823014 144.070084 426.362264 150.215637 438.823014 168.070084 438.823014 144.070084 400.69847"></polygon>
                <g id="Group-12" transform="translate(426.000000, 426.000000) rotate(-360.000000) translate(-426.000000, -426.000000) translate(27.000000, 27.000000)" stroke="#EAE8FD" stroke-width="24">
                    <path d="M598.480035,199.671839 C547.442086,148.595245 476.910775,117 399,117 M199.770587,199.42134 C148.635971,250.467033 117,321.039028 117,399 M201.107007,599.903937 C252.015101,650.053797 321.893614,681 399,681 L399,681 M597.036955,599.762018 C648.871742,548.626454 681,477.565205 681,399" id="Oval" transform="translate(399.000000, 399.000000) rotate(-45.000000) translate(-399.000000, -399.000000) "></path>
                </g>
            </g>
        </g>
    </g>
</svg>