<?xml version="1.0" encoding="UTF-8" standalone="no"?>
<svg width="103px" height="73px" viewBox="0 0 103 73" version="1.1" xmlns="http://www.w3.org/2000/svg" xmlns:xlink="http://www.w3.org/1999/xlink">
    <!-- Generator: Sketch 41.2 (35397) - http://www.bohemiancoding.com/sketch -->
    <title>Group</title>
    <desc>Created with Sketch.</desc>
    <defs></defs>
    <g id="Page-1" stroke="none" stroke-width="1" fill="none" fill-rule="evenodd">
        <g id="Artboard" transform="translate(-371.000000, -185.000000)" fill="#15133F">
            <g id="Group" transform="translate(371.000000, 185.000000)">
                <circle id="Oval" cx="47.341" cy="55.287" r="1.721"></circle>
                <circle id="Oval" cx="73.155" cy="65.898" r="1.721"></circle>
                <path d="M94.015,38.768 L94.015,16.643 L94.015,0.008 L0.667,0.008 L0.667,62.381 L45.842,62.381 L45.842,69.992 L38.528,69.992 L38.528,72.992 L52.296,72.992 L78.971,72.992 L102.335,72.992 L102.335,38.768 L94.015,38.768 Z M52.294,69.992 L48.841,69.992 L48.841,62.381 L52.294,62.381 L52.294,69.992 Z M3.667,59.381 L3.667,3.008 L91.016,3.008 L91.016,16.643 L88.853,16.643 L88.853,5.17 L5.83,5.17 L5.83,51.193 L52.295,51.193 L52.295,59.381 L3.667,59.381 L3.667,59.381 Z M52.294,48.193 L8.83,48.193 L8.83,8.17 L85.852,8.17 L85.852,16.643 L52.294,16.643 L52.294,48.193 Z M78.969,69.992 L55.294,69.992 L55.294,19.643 L91.015,19.643 L91.015,38.768 L88.852,38.768 L88.852,21.806 L57.458,21.806 L57.458,61.806 L78.97,61.806 L78.97,69.992 L78.969,69.992 Z M78.969,58.807 L60.458,58.807 L60.458,24.807 L85.853,24.807 L85.853,38.768 L78.97,38.768 L78.97,58.807 L78.969,58.807 Z M99.333,69.992 L81.969,69.992 L81.969,41.768 L99.333,41.768 L99.333,69.992 Z" id="Shape"></path>
                <path d="M98.318,43.451 L82.985,43.451 L82.985,65.139 L98.318,65.139 L98.318,43.451 Z M95.318,62.139 L85.985,62.139 L85.985,46.451 L95.318,46.451 L95.318,62.139 Z" id="Shape"></path>
                <circle id="Oval" cx="90.652" cy="67.69" r="0.905"></circle>
            </g>
        </g>
    </g>
</svg>