<?xml version="1.0" encoding="UTF-8" standalone="no"?>
<svg width="1600px" height="694px" viewBox="0 0 1600 694" version="1.1" xmlns="http://www.w3.org/2000/svg" xmlns:xlink="http://www.w3.org/1999/xlink">
    <!-- Generator: Sketch 41.2 (35397) - http://www.bohemiancoding.com/sketch -->
    <title>Tablet Portrait</title>
    <desc>Created with Sketch.</desc>
    <defs>
        <rect id="path-1" x="0" y="0" width="1600" height="694"></rect>
        <polygon id="path-3" points="0 0.31446425 0 6.00196675 5.68913566 6.00196675 5.68913566 0.31446425 0 0.31446425"></polygon>
    </defs>
    <g id="Page-1" stroke="none" stroke-width="1" fill="none" fill-rule="evenodd">
        <g id="Tablet-Portrait">
            <g id="Group">
                <mask id="mask-2" fill="white">
                    <use xlink:href="#path-1"></use>
                </mask>
                <use id="Rectangle" fill="#424242" xlink:href="#path-1"></use>
                <g id="zipper" mask="url(#mask-2)">
                    <g transform="translate(-49.000000, 0.000000)">
                        <path d="M0,1.13686838e-13 L822.882812,0.1796875 C822.882812,0.1796875 834.582031,40.7109375 971.628906,67 C1094.35307,90.5416042 1203.88667,64.3364812 1278.6582,351.746094 C1299.66992,432.511719 1188.25586,600.726562 1461.11133,600.726562 C1517.11071,600.726562 1687.06221,731.253277 1498.00781,756.5625 C1189.15287,797.909746 430,734 430,734 L0,734 L0,1.13686838e-13 Z" id="Rectangle" fill="#17181E"></path>
                        <g id="heart" stroke-width="1" fill="none" transform="translate(844.311499, 119.910191) rotate(-10.000000) translate(-844.311499, -119.910191) translate(806.311499, 59.410191)">
                            <path d="M37.7698688,61.835453 C37.7698688,61.835453 33.6912021,59.1910795 27.3582709,56.4970072 C19.5487683,53.1747422 0.0485354497,53.8132723 0.0501439153,77.8217663 C0.0513502645,104.126345 37.7698688,120.715802 37.7698688,120.715802" id="Stroke-1" stroke="#F84B68" stroke-width="3" stroke-linecap="round" stroke-linejoin="round"></path>
                            <path d="M37.8523429,70.5265398 C35.4669884,70.5265398 33.0844487,68.446347 33.4165968,65.927612 C33.7266286,63.5766602 35.9422899,62.787841 37.8917503,61.8360096" id="Stroke-3" stroke="#F84B68" stroke-width="3" stroke-linecap="round" stroke-linejoin="round"></path>
                            <path d="M38.1020974,61.835453 C38.1020974,61.835453 42.180764,59.1910795 48.5136952,56.4970072 C56.3231979,53.1747422 75.8226265,53.8132723 75.8218222,77.8217663 C75.8202138,104.125947 38.1020974,120.715802 38.1020974,120.715802" id="Stroke-5" stroke="#F84B68" stroke-width="3" stroke-linecap="round" stroke-linejoin="round"></path>
                            <polygon id="Page-1" stroke="#9397FF" stroke-width="3" stroke-linecap="round" stroke-linejoin="round" points="38.3289428 -3.33955086e-13 41.8308114 7.4362063 49.6572345 8.62926909 43.9931701 14.4188064 45.3310522 22.5920801 38.3289428 18.7314784 31.3278101 22.5920801 32.6648784 14.4188064 27 8.62926909 34.8288648 7.4362063"></polygon>
                            <path d="M38.0015683,70.5265398 C40.3869228,70.5265398 42.7694624,68.446347 42.4373143,65.927612 C42.1272825,63.5766602 39.9116212,62.787841 37.9621608,61.8360096" id="Stroke-7" stroke="#F84B68" stroke-width="3" stroke-linecap="round" stroke-linejoin="round"></path>
                            <polygon id="Fill-9" fill="#17181E" points="52.8994984 63.6024614 41.7435041 62.1492028 36.8903434 59.5884558 35.9108847 54.7242687"></polygon>
                            <polyline id="Fill-11" fill="#17181E" points="38.5681625 63.8180647 31.5930316 60.0470665 27 61.8202289 38.9762328 66.9956627"></polyline>
                        </g>
                        <path d="M0,5.68434189e-14 L430,5.68434189e-14 C430,5.68434189e-14 548.742188,130.214844 771.527344,157.953125 C954.287849,180.708062 1221.76064,73.4727354 1280.6543,361.753906 C1293.05469,422.453125 1259.35745,504.229107 1318.34375,556.779297 C1343.03647,578.777743 1371.25977,590.736328 1465.58789,596.748047 C1559.91602,602.759766 1687.06221,731.253277 1498.00781,756.5625 C1189.15287,797.909746 430,734 430,734 L0,734 L0,5.68434189e-14 Z" id="Rectangle" fill="#4A53FF"></path>
                        <g id="Page-1" stroke-width="1" fill="none" transform="translate(1232.000000, 247.000000)">
                            <path d="M68.9903713,213.767548 C68.9903713,221.512468 62.7110516,227.790673 54.9647566,227.790673 C47.2184615,227.790673 40.9391418,221.512468 40.9391418,213.767548 C40.9391418,206.022628 47.2184615,199.744423 54.9647566,199.744423 C62.7110516,199.744423 68.9903713,206.022628 68.9903713,213.767548" id="Fill-1" fill="#4A53FF"></path>
                            <path d="M60.6365533,244.816188 C60.6365533,250.23777 56.2404754,254.632375 50.8179303,254.632375 C45.3960779,254.632375 41,250.23777 41,244.816188 C41,239.394605 45.3960779,235 50.8179303,235 C56.2404754,235 60.6365533,239.394605 60.6365533,244.816188" id="Fill-3" fill="#424242"></path>
                            <path d="M63.6729672,263.834223 C63.6729672,268.713577 59.7167049,272.669138 54.8364836,272.669138 C49.9562623,272.669138 46,268.713577 46,263.834223 C46,258.95556 49.9562623,255 54.8364836,255 C59.7167049,255 63.6729672,258.95556 63.6729672,263.834223" id="Fill-5" fill="#4A53FF"></path>
                            <path d="M71.9053934,276.950592 C71.9053934,281.341735 68.3446189,284.901877 63.9526967,284.901877 C59.5607746,284.901877 56,281.341735 56,276.950592 C56,272.55945 59.5607746,269 63.9526967,269 C68.3446189,269 71.9053934,272.55945 71.9053934,276.950592" id="Fill-7" fill="#424242"></path>
                            <path d="M81.0570328,298.526843 C81.0570328,301.579383 78.582291,304.054378 75.5285164,304.054378 C72.4747418,304.054378 70,301.579383 70,298.526843 C70,295.474303 72.4747418,293 75.5285164,293 C78.582291,293 81.0570328,295.474303 81.0570328,298.526843" id="Fill-9" fill="#424242"></path>
                            <path d="M95.6328525,312.314967 C95.6328525,314.698552 93.7004344,316.630627 91.3164262,316.630627 C88.932418,316.630627 87,314.698552 87,312.314967 C87,309.932075 88.932418,308 91.3164262,308 C93.7004344,308 95.6328525,309.932075 95.6328525,312.314967" id="Fill-11" fill="#424242"></path>
                            <path d="M100.074451,317.535905 C100.074451,319.489447 98.4904221,321.072502 96.5372254,321.072502 C94.5833361,321.072502 93,319.489447 93,317.535905 C93,315.583055 94.5833361,314 96.5372254,314 C98.4904221,314 100.074451,315.583055 100.074451,317.535905" id="Fill-13" fill="#4A53FF"></path>
                            <path d="M103.870525,321.43483 C103.870525,322.779665 102.779643,323.86966 101.43457,323.86966 C100.090189,323.86966 99,322.779665 99,321.43483 C99,320.089995 100.090189,319 101.43457,319 C102.779643,319 103.870525,320.089995 103.870525,321.43483" id="Fill-15" fill="#424242"></path>
                            <path d="M107.870525,324.43483 C107.870525,325.779665 106.779643,326.86966 105.43457,326.86966 C104.090189,326.86966 103,325.779665 103,324.43483 C103,323.089995 104.090189,322 105.43457,322 C106.779643,322 107.870525,323.089995 107.870525,324.43483" id="Fill-17" fill="#4A53FF"></path>
                            <path d="M111.769254,324.884293 C111.769254,325.92512 110.924254,326.768585 109.883934,326.768585 C108.843615,326.768585 108,325.92512 108,324.884293 C108,323.843465 108.843615,323 109.883934,323 C110.924254,323 111.769254,323.843465 111.769254,324.884293" id="Fill-19" fill="#424242"></path>
                            <path d="M113.769254,327.884293 C113.769254,328.92512 112.924254,329.768585 111.883934,329.768585 C110.843615,329.768585 110,328.92512 110,327.884293 C110,326.843465 110.843615,326 111.883934,326 C112.924254,326 113.769254,326.843465 113.769254,327.884293" id="Fill-21" fill="#4A53FF"></path>
                            <path d="M140.769254,304.884293 C140.769254,305.92512 139.924254,306.768585 138.883934,306.768585 C137.843615,306.768585 137,305.92512 137,304.884293 C137,303.843465 137.843615,303 138.883934,303 C139.924254,303 140.769254,303.843465 140.769254,304.884293" id="Fill-23" fill="#424242"></path>
                            <path d="M75.7496557,288.873092 C75.7496557,292.117455 73.1190738,294.746877 69.8755205,294.746877 C66.630582,294.746877 64,292.117455 64,288.873092 C64,285.629422 66.630582,283 69.8755205,283 C73.1190738,283 75.7496557,285.629422 75.7496557,288.873092" id="Fill-25" fill="#4A53FF"></path>
                            <path d="M88.7496557,306.873093 C88.7496557,310.117455 86.1190738,312.746878 82.8755205,312.746878 C79.630582,312.746878 77,310.117455 77,306.873093 C77,303.629423 79.630582,301 82.8755205,301 C86.1190738,301 88.7496557,303.629423 88.7496557,306.873093" id="Fill-27" fill="#4A53FF"></path>
                            <path d="M63.0512295,100.023125 C63.0512295,107.768045 56.7719098,114.04625 49.0256148,114.04625 C41.2793197,114.04625 35,107.768045 35,100.023125 C35,92.278205 41.2793197,86 49.0256148,86 C56.7719098,86 63.0512295,92.278205 63.0512295,100.023125" id="Fill-29" fill="#424242"></path>
                            <path d="M58.0963234,125.0462 C58.0963234,131.146976 53.1500205,136.092401 47.0481617,136.092401 C40.9463029,136.092401 36,131.146976 36,125.0462 C36,118.945425 40.9463029,114 47.0481617,114 C53.1500205,114 58.0963234,118.945425 58.0963234,125.0462" id="Fill-31" fill="#4A53FF"></path>
                            <path d="M49.6365533,77.8161875 C49.6365533,83.23777 45.2404754,87.632375 39.8179303,87.632375 C34.3960779,87.632375 30,83.23777 30,77.8161875 C30,72.394605 34.3960779,68 39.8179303,68 C45.2404754,68 49.6365533,72.394605 49.6365533,77.8161875" id="Fill-33" fill="#4A53FF"></path>
                            <path d="M43.6729672,59.6679308 C43.6729672,64.5472858 39.7167049,68.5028458 34.8364836,68.5028458 C29.9562623,68.5028458 26,64.5472858 26,59.6679308 C26,56.4131808 27.2688852,54.5863658 29.6930656,52.4506958 C30.0227541,52.1605383 30.6655082,50.2485458 31.0783115,50.0851158 C32.0888484,49.6834658 33.6832664,50.8337083 34.8364836,50.8337083 C39.7167049,50.8337083 43.6729672,54.7892683 43.6729672,59.6679308" id="Fill-35" fill="#424242"></path>
                            <path d="M32.0570328,35.5268425 C32.0570328,38.5793825 29.582291,41.0543775 26.5285164,41.0543775 C23.4747418,41.0543775 21,38.5793825 21,35.5268425 C21,32.4743025 23.4747418,30 26.5285164,30 C29.582291,30 32.0570328,32.4743025 32.0570328,35.5268425" id="Fill-37" fill="#424242"></path>
                            <path d="M20.6328525,21.3149675 C20.6328525,23.6985525 18.7004344,25.6306275 16.3164262,25.6306275 C13.932418,25.6306275 12,23.6985525 12,21.3149675 C12,18.932075 13.932418,17 16.3164262,17 C18.7004344,17 20.6328525,18.932075 20.6328525,21.3149675" id="Fill-39" fill="#17181E"></path>
                            <path d="M12.6892049,9.843405 C12.6892049,11.4146875 11.4154713,12.6875025 9.84460246,12.6875025 C8.27373361,12.6875025 7,11.4146875 7,9.843405 C7,8.272815 8.27373361,7 9.84460246,7 C11.4154713,7 12.6892049,8.272815 12.6892049,9.843405" id="Fill-43" fill="#17181E"></path>
                            <path d="M15,1.99915808 C15,3.10390472 14.1044558,3.99880305 13,3.99880305 C11.8955442,3.99880305 11,3.10390472 11,1.99915808 C11,0.894898333 11.8955442,2.22044605e-16 13,2.22044605e-16 C14.1044558,2.22044605e-16 15,0.894898333 15,1.99915808" id="Fill-43-Copy" fill="#17181E"></path>
                            <g id="Group-47" transform="translate(0.000000, 14.430315)">
                                <mask id="mask-4" fill="white">
                                    <use xlink:href="#path-3"></use>
                                </mask>
                                <g id="Clip-46"></g>
                            </g>
                            <path d="M27.6328525,26.3149675 C27.6328525,28.6985525 25.7004344,30.6306275 23.3164262,30.6306275 C20.932418,30.6306275 19,28.6985525 19,26.3149675 C19,23.932075 20.932418,22 23.3164262,22 C25.7004344,22 27.6328525,23.932075 27.6328525,26.3149675" id="Fill-48" fill="#17181E"></path>
                            <path d="M24.4207623,18.70903 C24.4207623,20.7581375 22.7598525,22.4187525 20.7103811,22.4187525 C18.6609098,22.4187525 17,20.7581375 17,18.70903 C17,16.660615 18.6609098,15 20.7103811,15 C22.7598525,15 24.4207623,16.660615 24.4207623,18.70903" id="Fill-50" fill="#424242"></path>
                            <path d="M19,5.99890754 C19,7.65569757 17.6570842,8.998375 16,8.998375 C14.3429158,8.998375 13,7.65569757 13,5.99890754 C13,4.34267742 14.3429158,3 16,3 C17.6570842,3 19,4.34267742 19,5.99890754" id="Fill-54" fill="#424242"></path>
                            <path d="M33.7496557,46.8730925 C33.7496557,50.117455 31.1190738,52.7468775 27.8755205,52.7468775 C24.630582,52.7468775 22,50.117455 22,46.8730925 C22,43.6294225 24.630582,41 27.8755205,41 C31.1190738,41 33.7496557,43.6294225 33.7496557,46.8730925" id="Fill-56" fill="#4A53FF"></path>
                            <path d="M23.6328525,29.3149675 C23.6328525,31.6985525 21.7004344,33.6306275 19.3164262,33.6306275 C16.932418,33.6306275 15,31.6985525 15,29.3149675 C15,26.932075 16.932418,25 19.3164262,25 C21.7004344,25 23.6328525,26.932075 23.6328525,29.3149675" id="Fill-41" fill="#4A53FF"></path>
                            <path d="M22.4207623,11.70903 C22.4207623,13.7581375 20.7598525,15.4187525 18.7103811,15.4187525 C16.6609098,15.4187525 15,13.7581375 15,11.70903 C15,9.660615 16.6609098,8 18.7103811,8 C20.7598525,8 22.4207623,9.660615 22.4207623,11.70903" id="Fill-52" fill="#17181E"></path>
                            <path d="M16.1892049,14.8433441 C16.1892049,16.6908133 14.6915853,18.1873529 12.8446025,18.1873529 C10.9976197,18.1873529 9.5,16.6908133 9.5,14.8433441 C9.5,12.9966892 10.9976197,11.5001496 12.8446025,11.5001496 C14.6915853,11.5001496 16.1892049,12.9966892 16.1892049,14.8433441" id="Fill-45" fill="#4A53FF"></path>
                            <path d="M8.68860627,6.34331628 C8.68860627,7.63824678 7.63889274,8.68720326 6.34430313,8.68720326 C5.04971353,8.68720326 4,7.63824678 4,6.34331628 C4,5.04895648 5.04971353,4 6.34430313,4 C7.63889274,4 8.68860627,5.04895648 8.68860627,6.34331628" id="Fill-45" fill="#4A53FF"></path>
                        </g>
                    </g>
                </g>
                <g id="hanger" mask="url(#mask-2)">
                    <g transform="translate(1233.227854, 427.383970) rotate(-7.000000) translate(-1233.227854, -427.383970) translate(1198.227854, 364.883970)" id="Group-57">
                        <g transform="translate(35.015580, 62.453605) rotate(7.000000) translate(-35.015580, -62.453605) translate(7.515580, 3.453605)">
                            <polygon id="Fill-37" fill="#4A53FF" points="24.2636656 37.2830651 44.7909968 45.9463298 49.8326174 80.9599967 50.192926 102.25755 38.3086817 113.447239 23.1832797 115.252447"></polygon>
                            <polygon id="Fill-39" fill="#424242" points="33.9871383 42.3364557 17.7813505 34.0343409 8.77795498 19.2342362 18.8617363 4.43467294 34.3474469 6.23933925"></polygon>
                            <path d="M37.2293762,88.4520421 C37.1029711,88.0594879 36.7642701,87.7741416 36.3569646,87.7151231 L30.752463,86.8986104 L28.2443473,81.8067767 C28.0628424,81.437505 27.6874084,81.202514 27.2757814,81.202514 C26.8646945,81.202514 26.4887203,81.437505 26.3072154,81.8067767 L23.8007203,86.8986104 L18.1940579,87.7151231 C17.7867524,87.7741416 17.4491318,88.0594879 17.3211061,88.4520421 C17.194701,88.8435134 17.301119,89.2739693 17.5955241,89.5614814 L21.652373,93.524925 L20.6946109,99.1213939 C20.624926,99.5274845 20.7913055,99.9379066 21.1251447,100.179937 C21.3125916,100.317466 21.5351511,100.387313 21.758791,100.387313 C21.9311125,100.387313 22.1039743,100.346163 22.2622508,100.262238 L27.2757814,97.6199419 L32.2893119,100.262238 C32.6534019,100.454995 33.0947395,100.421967 33.4269582,100.179937 C33.7602572,99.9379066 33.9271768,99.5274845 33.857492,99.1213939 L32.8991897,93.524925 L36.9560386,89.5614814 C37.2504437,89.2739693 37.3557814,88.8435134 37.2293762,88.4520421" id="Fill-51" fill="#FFF03B"></path>
                            <path d="M39.667591,66.6426524 C38.9999125,65.6507086 37.6553723,65.3902692 36.6678997,66.0589649 C33.8934688,67.937269 30.6501505,68.9292128 27.2896103,68.9292128 C27.2842084,68.9292128 27.2798868,68.9313786 27.2761055,68.9313786 C27.2707035,68.9313786 27.266382,68.9292128 27.2609801,68.9292128 C23.9009801,68.9292128 20.6576617,67.937269 17.8837711,66.0589649 C16.895218,65.3902692 15.5517582,65.6507086 14.8840797,66.6415695 C14.2164013,67.6335133 14.4767743,68.979568 15.4653273,69.6493467 C18.9555138,72.0117107 23.035591,73.2608451 27.2609801,73.2608451 C27.266382,73.2608451 27.2707035,73.2597622 27.2761055,73.2597622 C27.2798868,73.2597622 27.2842084,73.2608451 27.2896103,73.2608451 C31.5149994,73.2608451 35.5939961,72.0117107 39.0863434,69.6493467 C40.0748965,68.979568 40.3352695,67.6335133 39.667591,66.6426524" id="Fill-53" fill="#FFF03B"></path>
                            <path d="M33.2559871,20.2573678 C33.2559871,23.5580716 30.5868939,26.233396 27.2927974,26.233396 C24.0008617,26.233396 21.3306881,23.5580716 21.3306881,20.2573678 C21.3306881,16.9566639 24.0008617,14.2813395 27.2927974,14.2813395 C30.5868939,14.2813395 33.2559871,16.9566639 33.2559871,20.2573678" id="Fill-55" fill="#EDEDED"></path>
                            <path d="M54.2918559,90.1451689 C53.7527434,80.3388948 51.144692,61.6598133 49.0271357,52.432895 C47.5502482,45.9901334 45.5245248,43.320765 39.9967305,40.529028 C38.9773865,40.0151881 37.2557916,39.3004688 35.445065,38.5862909 C35.4504669,38.5830421 35.4558688,38.5814178 35.4623511,38.5781691 C32.6949428,37.4600665 28.4609106,35.8091731 27.3086791,35.3608492 C27.2978752,35.3662637 27.2865312,35.3727612 27.2746469,35.3781757 C26.935946,35.2141151 26.6015666,35.0489716 26.2617852,34.885994 C19.5180167,31.6535134 13.6941968,28.8612349 12.8234058,22.1704873 C12.3858495,18.8064334 13.4873029,15.4201798 15.9268141,12.6360231 C18.7633672,9.39758652 23.069245,7.38608476 27.1649878,7.38608476 C27.2022611,7.38608476 27.2379138,7.38175313 27.2746469,7.38012877 C27.3119203,7.38175313 27.3486534,7.38608476 27.3853865,7.38608476 C31.4800489,7.38608476 35.7870071,9.39758652 38.6241003,12.6360231 C41.0625312,15.4201798 42.165065,18.8064334 41.7269685,22.1704873 C41.0949428,27.022457 37.8537852,29.8217743 33.5511486,32.2285375 C36.7842032,33.4554724 39.4986727,34.6450469 40.8145826,35.2395635 C44.514364,32.4147977 47.4189814,28.66577 48.1547241,23.0102825 C48.8369878,17.7657587 47.182917,12.5585952 43.4955601,8.34879005 C39.4030585,3.67766605 33.3804476,0.888636291 27.3853865,0.888636291 C27.3486534,0.888636291 27.3119203,0.892967924 27.2746469,0.894050832 C27.2379138,0.892967924 27.2022611,0.888636291 27.1649878,0.888636291 C21.1704669,0.888636291 15.1478559,3.67766605 11.0553543,8.34879005 C7.36799743,12.5585952 5.71230611,17.7657587 6.39510997,23.0113654 C7.72236399,33.2004475 16.0856309,37.2104562 23.464126,40.7483169 C24.122081,41.0634431 24.7762547,41.3801937 25.4261068,41.6985687 C25.7691293,41.9292281 26.1499653,42.0889571 26.5502482,42.1766726 C29.086454,43.096603 35.1225698,45.3441787 37.0807691,46.3317909 C40.8691421,48.2458309 41.658364,49.3043736 42.7106598,53.8888649 C44.7266598,62.6761225 47.3050006,81.1543245 47.8192643,90.5025285 C48.0963833,95.5353438 46.2651293,100.40843 42.6620424,104.224057 C38.7159331,108.403541 33.1470842,110.800558 27.3853865,110.800558 C27.3486534,110.800558 27.3119203,110.804889 27.2746469,110.805972 C27.2379138,110.804889 27.2022611,110.800558 27.1649878,110.800558 C21.4022096,110.800558 15.8349814,108.403541 11.888872,104.224057 C8.28578521,100.40843 6.453991,95.5353438 6.73056977,90.5025285 C7.24537363,81.1543245 9.82425466,62.6761225 11.8402547,53.8888649 C12.8920103,49.3043736 13.6812322,48.2458309 17.4701453,46.3317909 C17.9185055,46.106546 18.5872643,45.8114536 19.3721646,45.4849568 C17.1881646,44.5612362 14.6141453,43.3229308 12.2686277,41.8128155 C8.43055691,44.2239103 6.77594598,46.9728725 5.52269839,52.432895 C3.40514212,61.6598133 0.798171061,80.3388948 0.259058521,90.1451689 C-0.116915756,96.9788603 2.34150225,103.565107 7.18109068,108.68997 C12.3458752,114.160821 19.6298367,117.298006 27.1649878,117.298006 C27.2022611,117.298006 27.2379138,117.294216 27.2746469,117.29205 C27.3119203,117.294216 27.3486534,117.298006 27.3853865,117.298006 C34.9210778,117.298006 42.2050392,114.160821 47.3698238,108.68997 C52.2094122,103.565107 54.66729,96.9788603 54.2918559,90.1451689" id="Fill-41" fill="#FFFFFF"></path>
                        </g>
                    </g>
                </g>
                <g id="icons" mask="url(#mask-2)">
                    <g transform="translate(51.000000, 51.000000)">
                        <polygon id="Page-1" stroke="#4A53FF" stroke-width="3" stroke-linecap="round" stroke-linejoin="round" transform="translate(1408.200487, 459.963161) rotate(-40.000000) translate(-1408.200487, -459.963161) " points="1408.20108 440.195091 1414.62118 453.208452 1428.96962 455.296312 1418.5855 465.428002 1421.03828 479.731231 1408.20108 472.975178 1395.36567 479.731231 1397.81697 465.428002 1387.43136 455.296312 1401.78427 453.208452"></polygon>
                        <polygon id="Page-1" stroke="#EDEDED" stroke-width="3" stroke-linecap="round" stroke-linejoin="round" transform="translate(1398.829740, 585.789007) rotate(-40.000000) translate(-1398.829740, -585.789007) " points="1390.35392 575.062646 1398.10666 578.472438 1405.30532 574.022821 1404.46358 582.448641 1410.9264 587.923567 1402.65207 589.719005 1399.44788 597.555192 1395.17772 590.240397 1386.73308 589.606783 1392.36713 583.288474"></polygon>
                        <g id="camera" stroke="none" stroke-width="1" fill-rule="evenodd" transform="translate(671.053987, 32.015623) rotate(20.000000) translate(-671.053987, -32.015623) translate(645.553987, 7.515623)" stroke-linejoin="round">
                            <path d="M12.289246,13.334144 L6.52444601,13.334144 C4.85004601,13.334144 3.49404601,14.691344 3.49404601,16.365344 L3.49404601,42.368544 C3.49404601,44.042544 4.85004601,45.399744 6.52444601,45.399744 L44.194846,45.399744 C45.868846,45.399744 47.226046,44.042544 47.226046,42.368544 L47.226046,16.365344 C47.226046,14.691344 45.868846,13.334144 44.194846,13.334144 L17.289246,13.334144 L20.289246,3.55374404 L31.489246,3.55374404 L33.089246,9.95374404" id="Stroke-1" stroke="#EDEDED" stroke-width="3" transform="translate(25.360046, 24.476744) rotate(-10.000000) translate(-25.360046, -24.476744) "></path>
                            <path d="M34.760326,29.553704 C34.760326,34.745304 30.551926,38.953704 25.360326,38.953704 C20.168726,38.953704 15.960326,34.745304 15.960326,29.553704 C15.960326,24.362104 20.168726,20.153704 25.360326,20.153704 C30.551926,20.153704 34.760326,24.362104 34.760326,29.553704 Z" id="Stroke-3" stroke="#EDEDED" stroke-width="3" transform="translate(25.360326, 29.553704) rotate(-10.000000) translate(-25.360326, -29.553704) "></path>
                        </g>
                        <g id="shoe" stroke="none" stroke-width="1" fill-rule="evenodd" transform="translate(1343.000000, 483.000000)">
                            <path d="M53.7185436,34.9933863 C52.2983632,32.9109826 49.86074,31.6767569 46.4636118,31.3428396 C40.1766637,30.7257268 29.2391545,21.9861124 28.4040036,17.886116 C27.474174,13.3253983 26.6927215,5.04227843 26.6856559,4.95774242 C26.6489149,4.59141972 26.3691182,4.21100768 26.0073608,4.21100768 L26.0045346,4.21100768 L19.9422717,4.4477085 L21.4472391,5.95949412 L25.3149345,5.85382411 C25.5325542,7.90804912 26.2348723,14.3327858 27.0248035,18.203126 C28.0592036,23.2738776 39.786644,32.119162 46.3293659,32.7616356 C49.2813629,33.0518759 51.3727729,34.0705348 52.5456583,35.7852069 C53.981383,37.8873356 53.6931076,40.5389484 53.4924453,41.6238272 L31.5778597,42.1916274 C31.1313154,42.0056482 28.7374987,40.8150994 24.0954164,35.231496 C21.163203,31.7021177 18.7962355,30.0128064 16.8546157,30.0621191 C13.279435,30.1551087 13.0279006,35.8486089 13.0194219,36.1022169 L12.8569137,42.6763005 L8.86203792,42.7791526 C9.13759533,40.6840686 9.52620192,35.3273035 6.80595577,32.7517731 C4.09842766,30.1889231 3.9316801,25.0533606 5.47338844,22.0495144 C7.12814596,18.8315104 6.72399511,15.0428882 6.70845084,14.9541254 L6.64203444,6.4131707 L15.5220484,6.14970014 C17.0637567,6.96124582 17.4594289,7.73193244 17.8437961,10.1665695 C18.1405502,12.0531314 17.9568453,13.4564291 17.3110518,14.2271158 C16.9139665,14.7033353 16.3515468,14.8301393 15.5503107,14.8512733 C15.5375926,14.8498644 15.5488975,14.7470122 15.5375926,14.7441943 C15.5277008,14.7427854 15.5192221,14.7413765 15.5093303,14.7399675 C14.730704,14.6187993 14.0976286,14.6624762 13.6779334,14.2102086 C12.9925727,13.4747453 12.7283202,12.1362585 12.9247432,10.239834 C13.0194219,9.33952553 13.1282318,8.70550547 13.2992187,8.16447501 L11.8338185,8.14334101 C11.692507,8.715368 11.5907628,9.36911313 11.5116283,10.1426176 C11.2685726,12.4884919 11.6416349,14.2158443 12.6237497,15.2739533 C13.3260678,16.0319595 14.3138351,16.3067016 15.5262877,16.277114 C15.5361795,16.275705 15.5587894,16.1742618 15.5686812,16.1756708 C15.5799861,16.1770797 15.5898779,16.1784886 15.5983566,16.1798976 C16.7797206,16.3630589 17.7491174,15.8262553 18.4132814,15.0330257 C19.3374585,13.925604 19.5607307,12.4659489 19.1947339,10.1355729 C18.8824356,8.13911421 18.8202585,6.6991842 17.7123764,6.52729431 L17.7674879,6.53574791 C16.981796,6.4131707 16.8616813,5.58753569 16.5889501,5.42269047 C15.3750844,4.6956808 13.7782646,4.79994187 13.7782646,4.79994187 L5.89449667,5.00564616 C5.51012942,5.01691763 5.2133753,5.37901353 5.21761464,5.76224344 L5.29674908,15.0541597 C5.30098842,15.0879741 5.6698114,18.5835381 4.21571619,21.4140854 C2.40410291,24.9336012 2.62454883,30.7384072 5.83231962,33.7774767 C8.62604774,36.4220448 7.35141811,43.3075027 7.34152631,43.3779494 C7.30054598,43.5878805 7.35707057,43.8020384 7.49555583,43.9626568 C7.63545421,44.126093 7.83894275,44.2176737 8.0523231,44.2106291 L13.5662974,44.0683268 C13.943599,44.0584642 14.2445925,43.7569525 14.2516581,43.3807672 L14.4311237,36.1458938 C14.4325368,36.0979901 14.6713532,31.5288188 16.8913567,31.4710526 C17.8932551,31.4442828 19.7684586,32.2332856 23.0073179,36.1303956 C28.4760725,42.707297 31.0140268,43.5117981 31.2853449,43.5822447 C31.3503482,43.5963341 31.4153514,43.6047877 31.4817678,43.6033787 L54.080301,43.0186713 C54.3897732,43.0102177 54.6568519,42.7988777 54.7416388,42.5030017 C54.7910978,42.3311118 55.9286553,38.239569 53.7185436,34.9933863" id="Fill-1" stroke="#9397FF" stroke-width="0.699999988" fill="#9397FF" transform="translate(29.077965, 24.211008) rotate(-10.000000) translate(-29.077965, -24.211008) "></path>
                        </g>
                        <g id="car" stroke="none" stroke-width="1" fill-rule="evenodd" transform="translate(1296.500000, 590.000000) rotate(10.000000) translate(-1296.500000, -590.000000) translate(1226.000000, 564.000000)">
                            <path d="M38.1604246,40.1658571 C38.1604246,46.5258571 33.0350035,51.6794762 26.715407,51.6794762 C20.3933018,51.6794762 15.2678807,46.5258571 15.2678807,40.1658571 C15.2678807,33.8058571 20.3933018,28.6522381 26.715407,28.6522381 C33.0350035,28.6522381 38.1604246,33.8058571 38.1604246,40.1658571" id="Fill-1"></path>
                            <path d="M38.1604246,40.1658571 C38.1604246,46.5258571 33.0350035,51.6794762 26.715407,51.6794762 C20.3933018,51.6794762 15.2678807,46.5258571 15.2678807,40.1658571 C15.2678807,33.8058571 20.3933018,28.6522381 26.715407,28.6522381 C33.0350035,28.6522381 38.1604246,33.8058571 38.1604246,40.1658571 Z" id="Stroke-3" stroke="#9EA3FF" stroke-width="2.5"></path>
                            <path d="M116.245951,40.1658571 C116.245951,46.5258571 111.12053,51.6794762 104.800933,51.6794762 C98.4788281,51.6794762 93.353407,46.5258571 93.353407,40.1658571 C93.353407,33.8058571 98.4788281,28.6522381 104.800933,28.6522381 C111.12053,28.6522381 116.245951,33.8058571 116.245951,40.1658571 Z" id="Stroke-5" stroke="#9EA3FF" stroke-width="2.5" stroke-linecap="round" stroke-linejoin="round"></path>
                            <path d="M116.873144,39.0616905 L131.925775,39.3771667 C131.925775,39.3771667 148.232793,38.4307381 135.06174,26.758119 C121.890688,15.0855 125.967442,17.2938333 112.482793,16.0319286 C98.9981439,14.7700238 61.3665649,16.0319286 61.3665649,16.0319286 L69.5200737,1.20454762 C69.5200737,1.20454762 67.0113018,-0.688309524 64.8161263,0.889071429 C62.6209509,2.46645238 55.4082316,16.0319286 55.4082316,16.0319286 L2.09682807,16.0319286 C2.09682807,16.0319286 -0.635224561,24.3428333 0.553933333,28.3026905 C2.01152982,33.1635476 3.66481053,37.7997857 14.3270912,38.7462143" id="Stroke-7" stroke="#9EA3FF" stroke-width="2.5" stroke-linecap="round" stroke-linejoin="round"></path>
                            <polyline id="Stroke-9" stroke="#9EA3FF" stroke-width="2.5" stroke-linecap="round" stroke-linejoin="round" points="38.8684 39.3882714 82.3981018 39.6255095 93.7302246 21.5878429"></polyline>
                            <path d="M84.2591088,27.3890714 L79.5551614,27.3890714" id="Stroke-11" stroke="#9EA3FF" stroke-width="2.5" stroke-linecap="round" stroke-linejoin="round"></path>
                            <path d="M58.2110316,21.0338667 L46.4122772,39.525819" id="Stroke-13" stroke="#9EA3FF" stroke-width="2.5" stroke-linecap="round" stroke-linejoin="round"></path>
                            <path d="M77.2716772,15.516819 C77.2716772,15.516819 80.3098,9.82562857 81.9329754,8.4804381 C83.2049228,7.42548571 89.3213088,5.38372381 88.5185018,8.20534286 C87.9088702,10.3531048 88.3830281,9.03315238 84.8155544,15.6556286 L77.2716772,15.516819 Z" id="Fill-15"></path>
                            <path d="M77.2716772,15.516819 C77.2716772,15.516819 80.3098,9.82562857 81.9329754,8.4804381 C83.2049228,7.42548571 89.3213088,5.38372381 88.5185018,8.20534286 C87.9088702,10.3531048 88.3830281,9.03315238 84.8155544,15.6556286 L77.2716772,15.516819 Z" id="Stroke-17" stroke="#9EA3FF" stroke-width="2.5" fill="#9EA3FF"></path>
                            <path d="M2.69692632,16.1661952 L10.7902246,16.3050048 C10.7902246,16.3050048 8.6326807,23.8941 4.10685614,23.4801952 C-0.416459649,23.0662905 1.46261053,18.0969095 2.69692632,16.1661952 Z" id="Stroke-19" stroke="#9EA3FF" stroke-width="2.5"></path>
                            <path d="M31.4840807,40.1658571 C31.4840807,42.8158571 29.346607,44.963619 26.7149053,44.963619 C24.0806947,44.963619 21.9432211,42.8158571 21.9432211,40.1658571 C21.9432211,37.5158571 24.0806947,35.3680952 26.7149053,35.3680952 C29.346607,35.3680952 31.4840807,37.5158571 31.4840807,40.1658571 Z" id="Stroke-21" stroke="#9EA3FF" stroke-width="2.5" stroke-linecap="round" stroke-linejoin="round"></path>
                            <path d="M109.579391,40.1658571 C109.579391,42.8158571 107.441918,44.963619 104.810216,44.963619 C102.176005,44.963619 100.038532,42.8158571 100.038532,40.1658571 C100.038532,37.5158571 102.176005,35.3680952 104.810216,35.3680952 C107.441918,35.3680952 109.579391,37.5158571 109.579391,40.1658571 Z" id="Stroke-23" stroke="#9EA3FF" stroke-width="2.5" stroke-linecap="round" stroke-linejoin="round"></path>
                            <path d="M55.4082316,16.0319286 L50.9200386,22.3540714 C50.9200386,22.3540714 43.7650211,22.1925476 49.0108632,16.2767381 C49.2466877,16.0092143 55.4082316,16.0319286 55.4082316,16.0319286 Z" id="Stroke-25" stroke="#9EA3FF" stroke-width="2.5" stroke-linecap="round" stroke-linejoin="round"></path>
                        </g>
                        <polygon id="Page-1" stroke="#FFF03B" stroke-width="3" stroke-linecap="round" stroke-linejoin="round" transform="translate(191.106671, 516.045043) rotate(-40.000000) translate(-191.106671, -516.045043) " points="180.946896 503.282278 190.239927 507.33942 198.868801 502.045043 197.859824 512.070507 205.606671 518.58485 195.688407 520.721153 191.847622 530.045043 186.729079 521.341531 176.606671 520.587625 183.360083 513.069783"></polygon>
                        <g id="shirt" stroke="none" stroke-width="1" fill-rule="evenodd" transform="translate(69.500000, 490.000000) rotate(-10.000000) translate(-69.500000, -490.000000) translate(7.000000, 446.000000)">
                            <path d="M62.6505507,32.408199 C71.8346934,28.0639917 82.1173061,23.5538959 80.7494,16.4725271 C79.4747602,9.86031184 73.1663293,5.94119408 62.3422537,4.96400664" id="Stroke-1" stroke="#EDEDED" stroke-width="3" stroke-linecap="round" stroke-linejoin="round"></path>
                            <path d="M62.3417356,4.96426585 C62.3417356,4.96426585 56.7872075,4.26183138 52.8104349,4.45882407 C42.2272973,4.97463388 25.5611225,12.6288368 13.8251094,35.9517346 C8.06850438,47.4032308 0.296310309,72.7608559 0.296310309,72.7608559 L18.3562986,78.766541 C18.3562986,78.766541 24.928984,61.8977457 27.6881129,55.7365401 C29.9990453,50.578442 37.9525906,36.5401207 37.9525906,36.5401207 L37.9525906,87.5897399 L62.3417356,87.5897399" id="Stroke-3" stroke="#EDEDED" stroke-width="3" stroke-linecap="round" stroke-linejoin="round"></path>
                            <path d="M2.15800986,66.6411224 L20.2413147,73.0304248" id="Stroke-5" stroke="#EDEDED" stroke-width="3" stroke-linecap="round" stroke-linejoin="round"></path>
                            <path d="M62.5619477,32.408199 C53.3803958,28.0639917 43.0951923,23.5538959 44.4630985,16.4725271 C45.7377383,9.86031184 52.0461691,5.94119408 62.8702447,4.96400664" id="Stroke-7" stroke="#EDEDED" stroke-width="3" stroke-linecap="round" stroke-linejoin="round"></path>
                            <path d="M62.8705038,4.96426585 C62.8705038,4.96426585 68.4250319,4.26183138 72.4018045,4.45882407 C82.9823513,4.97463388 99.6511169,12.6288368 111.38713,35.9517346 C117.146326,47.4032308 124.913338,72.7608559 124.913338,72.7608559 L106.855941,78.766541 C106.855941,78.766541 100.280665,61.8977457 97.5241264,55.7365401 C95.2131941,50.578442 87.2596488,36.5401207 87.2596488,36.5401207 L87.2596488,87.5897399 L62.8705038,87.5897399" id="Stroke-9" stroke="#EDEDED" stroke-width="3" stroke-linecap="round" stroke-linejoin="round"></path>
                            <path d="M123.054489,66.6411224 L104.971184,73.0304248" id="Stroke-11" stroke="#EDEDED" stroke-width="3" stroke-linecap="round" stroke-linejoin="round"></path>
                            <path d="M62.417644,55.2554632 L62.630084,32.7879283" id="Stroke-17" stroke="#EDEDED" stroke-width="3" stroke-linecap="round" stroke-linejoin="round"></path>
                            <path d="M77.3621411,8.20132656 C77.0800593,7.3289971 68.9361979,3.97630208 61.4809896,3.16432292 C55.6458493,2.52879241 58.5893229,2.67838542 54.6984375,0.0716145833 L69.0194205,-9.66338121e-13 L74.4832729,1.31933263 L86.6726639,12.1046825 L77.3621411,8.20132656 Z" id="Fill-13" fill="#4A53FF"></path>
                            <path d="M54.6454267,10.6063083 L65.6997396,6.89713542 C63.1919116,6.51870209 61.4173273,6.19078728 57.7851219,6.04045075 C51.0440389,5.75273774 50.1572917,6.209375 48.2903626,7.09413601 L39,12.9909567 L54.6454267,10.6063083 Z" id="Fill-15" fill="#4A53FF"></path>
                        </g>
                        <g id="party" stroke="none" stroke-width="1" fill-rule="evenodd" transform="translate(1446.000000, 672.500000) rotate(-80.000000) translate(-1446.000000, -672.500000) translate(1411.000000, 632.000000)" stroke-linecap="round" stroke-linejoin="round">
                            <path d="M31.3245389,46.7271881 C34.3383114,45.3134459 36.9639401,41.2880799 40.4882515,41.0776469 C45.0315449,40.8062552 47.3272934,48.7634613 51.534,45.8933892 C54.906994,43.5915696 54.5125629,37.2589562 59.1987904,36.5316263 C62.8475928,35.9654613 65.9602874,40.2977088 69.6698683,38.3019356" id="Stroke-7" stroke="#F84B68" stroke-width="3"></path>
                            <path d="M51.3219461,32.0856448 C52.9985928,30.8514387 55.0918862,26.9429799 56.7261976,25.6707789 C58.5767964,24.2303149 61.4187126,26.0933149 63.5627246,25.4323716 C69.8958383,23.4800211 66.6188323,17.8104387 69.5613473,13.6435314" id="Stroke-9" stroke="#F84B68" stroke-width="3"></path>
                        </g>
                        <g id="silla" stroke="none" stroke-width="1" fill-rule="evenodd" transform="translate(131.000000, 559.000000)" stroke-linecap="round" stroke-linejoin="round">
                            <path d="M0.0599547511,21.6809616 C0.0599547511,21.6809616 0.378914027,3.19370909 8.37304072,0.325022222 C16.3671674,-2.54366465 20.52419,18.8122747 31.7155837,18.4933724 C42.9069774,18.17447 62.7323348,9.24998519 62.7323348,9.24998519 C62.7323348,9.24998519 79.0400271,-2.22476229 78.7201086,15.9435879 C78.7201086,15.9435879 72.325095,27.4178572 65.2902443,44.9488808 C58.2553937,62.4799044 65.2897647,71.4043892 77.440914,64.0734599 C89.5920633,56.7425306 106.219674,61.8420997 105.899756,74.5919785 C105.579837,87.3418572 98.5449864,110.291352 64.3309683,113.797366 C24.4437919,117.884766 0.0594751131,88.2980862 0.0599547511,21.6809616 Z" id="Stroke-1" stroke="#F84B68" stroke-width="3"></path>
                            <path d="M12.0504253,10.0465239 C12.0504253,10.0465239 17.8060814,38.096066 17.8060814,53.0768269 C17.8060814,68.0575879 14.6088145,72.8392108 27.7187602,65.8267057 C40.8287059,58.8142007 54.2590498,69.3327192 61.2934208,75.0700929 C68.3277919,80.8074667 80.7983801,98.6573926 91.6703348,92.6011165" id="Stroke-3" stroke="#F84B68" stroke-width="3"></path>
                        </g>
                        <polygon id="Page-1-Copy" stroke="#EDEDED" stroke-width="3" stroke-linecap="round" stroke-linejoin="round" points="76.5614009 577.050827 80.0632695 584.487033 87.8896926 585.680096 82.2256282 591.469633 83.5635103 599.642907 76.5614009 595.782305 69.5602683 599.642907 70.8973365 591.469633 65.2324581 585.680096 73.0613229 584.487033"></polygon>
                    </g>
                </g>
            </g>
        </g>
    </g>
</svg>