<?xml version="1.0" encoding="UTF-8" standalone="no"?>
<svg width="19px" height="16px" viewBox="0 0 19 16" version="1.1" xmlns="http://www.w3.org/2000/svg" xmlns:xlink="http://www.w3.org/1999/xlink">
    <!-- Generator: Sketch 41.2 (35397) - http://www.bohemiancoding.com/sketch -->
    <title>Shape</title>
    <desc>Created with Sketch.</desc>
    <defs></defs>
    <g id="Page-1" stroke="none" stroke-width="1" fill="none" fill-rule="evenodd">
        <g id="styleUp-home" transform="translate(-1392.000000, -38.000000)" fill="#FFFFFF">
            <g id="top-card">
                <g id="social" transform="translate(1305.000000, 36.000000)">
                    <path d="M105.210224,3.80695941 C104.799083,3.99093792 104.372286,4.13608108 103.934345,4.24115962 C104.416906,3.77841338 104.779728,3.19961636 104.984419,2.55357453 L104.984419,2.55357453 C105.042844,2.36914074 104.844334,2.20965628 104.6793,2.30840644 L104.6793,2.30840644 C104.070054,2.67308544 103.413798,2.94666298 102.728712,3.12162695 C102.688965,3.13177969 102.647954,3.13692435 102.606809,3.13692435 C102.482018,3.13692435 102.360701,3.09016713 102.265281,3.005303 C101.536388,2.3570303 100.598923,2 99.625637,2 C99.2044796,2 98.7792618,2.06624319 98.3617589,2.19690845 C97.0681944,2.60178865 96.0700943,3.67857055 95.7569445,5.00707658 C95.6394626,5.50538016 95.6076558,6.00413902 95.6623364,6.48946713 C95.6686075,6.54523889 95.6424853,6.5841653 95.626379,6.60242201 C95.5980913,6.63442817 95.5579832,6.65277594 95.5163412,6.65277594 C95.5116942,6.65277594 95.5069119,6.6525483 95.5021747,6.65209302 C92.6706077,6.38661946 90.1172255,5.00999037 88.312362,2.77584206 L88.312362,2.77584206 C88.2203255,2.66188556 88.0438319,2.67586264 87.9704734,2.80284014 L87.9704734,2.80284014 C87.617035,3.41473599 87.430255,4.11459188 87.430255,4.82674031 C87.430255,5.91813669 87.8647667,6.94665896 88.6195114,7.69645902 C88.3021207,7.62051837 87.9949262,7.50091641 87.7095678,7.34097667 L87.7095678,7.34097667 C87.571513,7.26357912 87.4016515,7.36305773 87.3997115,7.52240561 L87.3997115,7.52240561 C87.3799507,9.14374751 88.3206182,10.5864377 89.7297697,11.2360762 C89.7013918,11.2367591 89.6730139,11.2370778 89.6445908,11.2370778 C89.4212218,11.2370778 89.1950555,11.2153155 88.9724534,11.1723826 L88.9724534,11.1723826 C88.8169839,11.1424252 88.6863732,11.2912561 88.7346473,11.443365 L88.7346473,11.443365 C89.1920327,12.8843707 90.4215326,13.9465381 91.8928538,14.1876997 C90.6717456,15.0148973 89.249736,15.4512373 87.7697074,15.4512373 L87.3083066,15.4509642 C87.1661462,15.4509642 87.0459122,15.5444786 87.0096841,15.68343 C86.9739974,15.820287 87.0397314,15.9646562 87.1609579,16.0358164 C88.828714,17.0152595 90.731028,17.5329125 92.6630733,17.5329125 C94.3542446,17.5329125 95.9361902,17.19423 97.3650122,16.5263347 C98.6748635,15.9140291 99.8323583,15.038754 100.805329,13.9248213 C101.711708,12.8871479 102.42048,11.6892616 102.911883,10.3644888 C103.380322,9.10167967 103.627918,7.75423401 103.627918,6.46779582 L103.627918,6.40651518 C103.627873,6.1999548 103.720451,6.00559592 103.881966,5.87329165 C104.494866,5.37111819 105.028588,4.77998309 105.468242,4.11632194 L105.468242,4.11632194 C105.584326,3.9410848 105.401245,3.7214579 105.210224,3.80695941 L105.210224,3.80695941 L105.210224,3.80695941 Z" id="Shape"></path>
                </g>
            </g>
        </g>
    </g>
</svg>